<svg xmlns="http://www.w3.org/2000/svg" width="370.771" height="371.564" viewBox="0 0 370.771 371.564">
  <defs>
    <style>
      .cls-1 {
        fill: #f5c869;
      }
    </style>
  </defs>
  <path id="Icon_awesome-diaspora" data-name="Icon awesome-diaspora" class="cls-1" d="M132.829,188.761c-.81,0-50.885,69.331-51.29,69.331S31.464,223.138,31.267,222.7s50.075-72.684,50.075-73.667c0-1.272-74.94-25.442-79.565-27.235-.752-.289,18.157-58.865,18.33-59.038.347-.4,83.5,27.177,84.133,27.177.231,0,.52-.347.578-.752.231-1.156.578-85.926.983-86.5.463-.694,60.426-.4,60.773-.173.867.578,2.024,90.263,3.527,90.263.81,0,80.2-27.177,80.548-26.772.463.52,18.446,59.1,18.214,59.327-.52.52-81.069,27.235-81.3,28.218-.173.81,47.878,70.6,47.7,71.065s-49.439,36.718-49.9,36.718c-.578-.116-51.463-72.569-52.562-72.569Z" transform="translate(-2.849 201.44) rotate(-49)"/>
</svg>
