<?xml version="1.0" encoding="utf-8"?>
<!-- Generator: Adobe Illustrator 24.2.3, SVG Export Plug-In . SVG Version: 6.00 Build 0)  -->
<svg version="1.1" id="Layer_1" xmlns="http://www.w3.org/2000/svg" xmlns:xlink="http://www.w3.org/1999/xlink" x="0px" y="0px"
	 viewBox="0 0 46.4 46.4" style="enable-background:new 0 0 46.4 46.4;" xml:space="preserve">
<g id="Layer_2_1_">
</g>
<g>
	<path d="M28.9,23.2L45.2,6.9c1.6-1.6,1.6-4.1,0-5.7s-4.1-1.6-5.7,0L23.2,17.5L6.9,1.3c-1.6-1.6-4.1-1.6-5.7,0s-1.6,4.1,0,5.7
		l16.3,16.2L1.3,39.5c-1.6,1.6-1.6,4.1,0,5.7c0.8,0.8,1.8,1.2,2.8,1.2s2-0.4,2.8-1.2l16.3-16.3l16.3,16.3c0.8,0.8,1.8,1.2,2.8,1.2
		s2-0.4,2.8-1.2c1.6-1.6,1.6-4.1,0-5.7L28.9,23.2z"/>
</g>
</svg>
