<?xml version="1.0" encoding="utf-8"?>
<!-- Generator: Adobe Illustrator 24.2.3, SVG Export Plug-In . SVG Version: 6.00 Build 0)  -->
<svg version="1.1" id="Layer_1" xmlns="http://www.w3.org/2000/svg" xmlns:xlink="http://www.w3.org/1999/xlink" x="0px" y="0px"
	 viewBox="0 0 1234 308.7" style="enable-background:new 0 0 1234 308.7;" xml:space="preserve">
<style type="text/css">
	.st0{enable-background:new    ;}
	.st1{fill:#F0974A;}
	.st2{opacity:0.2;fill:#33ACDC;enable-background:new    ;}
	.st3{opacity:0.2;fill:#F0974A;enable-background:new    ;}
	.st4{opacity:0.2;fill:#58E6CF;enable-background:new    ;}
	.st5{fill:#58E6CF;}
	.st6{fill:#33ACDC;}
	.st7{fill:none;stroke:#000000;stroke-width:5;stroke-linecap:round;stroke-linejoin:round;}
	.st8{fill:none;stroke:#914A0C;stroke-width:9;stroke-linecap:round;stroke-linejoin:round;}
	.st9{fill:#F08164;}
	.st10{fill:#FFFFFF;}
	.st11{font-family:'MyriadPro-Semibold';}
	.st12{font-size:20px;}
	.st13{fill:none;stroke:#223278;stroke-width:9;stroke-linecap:round;stroke-linejoin:round;}
	.st14{fill:#7B93C1;}
</style>
<g class="st0">
	<path class="st1" d="M438.4,261v-8.4h-0.1l-3.2,7.7h-1.7l-3.2-7.7H430v8.4h-2.4v-12.6h3.1l3.5,8.4h0.2l3.5-8.4h3.1V261H438.4z"/>
	<path class="st1" d="M443.2,256.2c0-3.1,1.8-5,4.7-5s4.7,1.9,4.7,5c0,3.1-1.8,5-4.7,5C444.9,261.2,443.2,259.4,443.2,256.2z
		 M450,256.2c0-1.8-0.8-2.9-2.1-2.9c-1.3,0-2.1,1.1-2.1,2.9c0,1.9,0.8,2.9,2.1,2.9C449.2,259.2,450,258.1,450,256.2z"/>
	<path class="st1" d="M454.7,251.4h2.5v1.6h0.2c0.4-1.1,1.4-1.8,2.7-1.8c1.3,0,2.3,0.7,2.7,1.8h0.2c0.4-1.1,1.5-1.8,2.9-1.8
		c1.9,0,3.1,1.2,3.1,3.2v6.6h-2.5v-5.9c0-1.1-0.5-1.7-1.6-1.7c-1,0-1.7,0.7-1.7,1.7v5.9h-2.4v-6c0-1-0.6-1.6-1.6-1.6
		s-1.7,0.8-1.7,1.8v5.8H455v-9.6H454.7z"/>
	<path class="st1" d="M479.7,258.3c-0.4,1.8-2,2.9-4.4,2.9c-2.9,0-4.6-1.8-4.6-5c0-3.1,1.8-5.1,4.6-5.1c2.8,0,4.5,1.8,4.5,4.8v0.8
		h-6.6v0.1c0,1.4,0.9,2.3,2.2,2.3c1,0,1.7-0.4,2-1h2.3V258.3z M473.2,255.2h4.1c-0.1-1.3-0.8-2.1-2-2.1
		C474.1,253.2,473.3,254,473.2,255.2z"/>
	<path class="st1" d="M481.9,251.4h2.5v1.5h0.2c0.4-1.1,1.4-1.7,2.8-1.7c2.1,0,3.3,1.3,3.3,3.6v6.2H488v-5.6c0-1.3-0.6-2-1.8-2
		c-1.2,0-1.9,0.8-1.9,2.1v5.5h-2.5L481.9,251.4L481.9,251.4z"/>
	<path class="st1" d="M496.3,249.1v2.4h2v2h-2v4.3c0,0.8,0.4,1.2,1.2,1.2c0.3,0,0.5,0,0.7,0v1.9c-0.3,0.1-0.8,0.1-1.3,0.1
		c-2.3,0-3.3-0.8-3.3-2.6v-4.9h-1.5v-2h1.5v-2.4H496.3z"/>
	<path class="st1" d="M510.3,261h-2.9l-3.3-9.6h2.7l2,7.1h0.2l2-7.1h2.7L510.3,261z"/>
	<path class="st1" d="M514.5,258.3c0-1.7,1.3-2.7,3.7-2.9l2.3-0.1v-0.8c0-0.8-0.6-1.3-1.6-1.3c-0.9,0-1.5,0.3-1.7,0.9h-2.3
		c0.2-1.8,1.8-2.9,4.2-2.9c2.5,0,4,1.2,4,3.3v6.5h-2.5v-1.3h-0.2c-0.5,0.9-1.5,1.4-2.8,1.4C515.8,261.2,514.5,260,514.5,258.3z
		 M520.6,257.5v-0.7l-1.9,0.1c-1.1,0.1-1.6,0.5-1.6,1.2s0.6,1.1,1.5,1.1C519.7,259.3,520.6,258.5,520.6,257.5z"/>
	<path class="st1" d="M525.5,251.4h2.5v1.5h0.2c0.4-1.1,1.4-1.7,2.8-1.7c2.1,0,3.3,1.3,3.3,3.6v6.2h-2.5v-5.6c0-1.3-0.6-2-1.8-2
		s-1.9,0.8-1.9,2.1v5.5h-2.5L525.5,251.4L525.5,251.4z"/>
	<path class="st1" d="M540.8,256.2c0-3.1,1.8-5,4.7-5s4.7,1.9,4.7,5c0,3.1-1.8,5-4.7,5S540.8,259.4,540.8,256.2z M547.7,256.2
		c0-1.8-0.8-2.9-2.1-2.9s-2.1,1.1-2.1,2.9c0,1.9,0.8,2.9,2.1,2.9C546.9,259.2,547.7,258.1,547.7,256.2z"/>
	<path class="st1" d="M557.3,261h-2.9l-3.3-9.6h2.7l2,7.1h0.2l2-7.1h2.7L557.3,261z"/>
	<path class="st1" d="M570.5,258.3c-0.4,1.8-2,2.9-4.4,2.9c-2.9,0-4.6-1.8-4.6-5c0-3.1,1.8-5.1,4.6-5.1s4.5,1.8,4.5,4.8v0.8H564v0.1
		c0,1.4,0.9,2.3,2.2,2.3c1,0,1.7-0.4,2-1h2.3V258.3z M564,255.2h4.1c-0.1-1.3-0.8-2.1-2-2.1C564.9,253.2,564.1,254,564,255.2z"/>
	<path class="st1" d="M572.6,251.4h2.5v1.5h0.2c0.3-1,1.2-1.7,2.5-1.7c0.3,0,0.8,0,1,0.1v2.3c-0.2-0.1-0.8-0.2-1.2-0.2
		c-1.4,0-2.3,0.8-2.3,2.2v5.3h-2.5v-9.5H572.6z"/>
	<path class="st1" d="M580.4,251.4h2.5v1.5h0.2c0.4-1.1,1.4-1.7,2.8-1.7c2.1,0,3.3,1.3,3.3,3.6v6.2h-2.5v-5.6c0-1.3-0.6-2-1.8-2
		s-1.9,0.8-1.9,2.1v5.5h-2.5L580.4,251.4L580.4,251.4z"/>
	<path class="st1" d="M591.1,258.3c0-1.7,1.3-2.7,3.7-2.9l2.3-0.1v-0.8c0-0.8-0.6-1.3-1.6-1.3c-0.9,0-1.5,0.3-1.7,0.9h-2.3
		c0.2-1.8,1.8-2.9,4.2-2.9c2.5,0,4,1.2,4,3.3v6.5h-2.5v-1.3H597c-0.5,0.9-1.5,1.4-2.8,1.4C592.4,261.2,591.1,260,591.1,258.3z
		 M597.1,257.5v-0.7l-1.9,0.1c-1.1,0.1-1.6,0.5-1.6,1.2s0.6,1.1,1.5,1.1C596.2,259.3,597.1,258.5,597.1,257.5z"/>
	<path class="st1" d="M602.1,251.4h2.5v1.6h0.2c0.4-1.1,1.4-1.8,2.7-1.8s2.3,0.7,2.7,1.8h0.2c0.4-1.1,1.5-1.8,2.9-1.8
		c1.9,0,3.1,1.2,3.1,3.2v6.6h-2.5v-5.9c0-1.1-0.5-1.7-1.6-1.7c-1,0-1.7,0.7-1.7,1.7v5.9h-2.4v-6c0-1-0.6-1.6-1.6-1.6
		s-1.7,0.8-1.7,1.8v5.8h-2.5v-9.6H602.1z"/>
	<path class="st1" d="M627.2,258.3c-0.4,1.8-2,2.9-4.4,2.9c-2.9,0-4.6-1.8-4.6-5c0-3.1,1.8-5.1,4.6-5.1s4.5,1.8,4.5,4.8v0.8h-6.6
		v0.1c0,1.4,0.9,2.3,2.2,2.3c1,0,1.7-0.4,2-1h2.3V258.3z M620.7,255.2h4.1c-0.1-1.3-0.8-2.1-2-2.1
		C621.6,253.2,620.8,254,620.7,255.2z"/>
</g>
<rect id="Rectangle_10_1_" x="37" y="85.3" class="st2" width="383.3" height="134"/>
<rect id="Rectangle_11_1_" x="424.5" y="85.3" class="st3" width="383.3" height="134"/>
<rect id="Rectangle_12_1_" x="812" y="85.3" class="st4" width="383.3" height="134"/>
<g class="st0">
	<path class="st5" d="M826,254.7c0,4.1-2.3,6.6-6,6.6s-6-2.5-6-6.6c0-4.1,2.4-6.6,6-6.6C823.7,248.1,826,250.7,826,254.7z
		 M816.7,254.7c0,2.6,1.3,4.3,3.4,4.3c2,0,3.3-1.7,3.3-4.3c0-2.6-1.3-4.3-3.3-4.3C818,250.4,816.7,252.1,816.7,254.7z"/>
	<path class="st5" d="M828.3,251.4h2.5v1.5h0.2c0.4-1.1,1.4-1.7,2.8-1.7c2.1,0,3.3,1.3,3.3,3.6v6.2h-2.5v-5.6c0-1.3-0.6-2-1.8-2
		s-1.9,0.8-1.9,2.1v5.5h-2.5L828.3,251.4L828.3,251.4z"/>
	<path class="st5" d="M842.7,249.1v2.4h2v2h-2v4.3c0,0.8,0.4,1.2,1.2,1.2c0.3,0,0.5,0,0.7,0v1.9c-0.3,0.1-0.8,0.1-1.3,0.1
		c-2.3,0-3.3-0.8-3.3-2.6v-4.9h-1.5v-2h1.5v-2.4H842.7z"/>
	<path class="st5" d="M850.5,251.2c2.4,0,3.9,1,4,2.9h-2.3c-0.1-0.6-0.7-1-1.7-1c-0.9,0-1.6,0.4-1.6,1c0,0.5,0.4,0.8,1.3,1l1.8,0.4
		c1.9,0.4,2.7,1.2,2.7,2.6c0,1.9-1.7,3.2-4.2,3.2s-4.1-1-4.2-2.9h2.5c0.2,0.7,0.8,1,1.8,1s1.7-0.4,1.7-1c0-0.5-0.4-0.8-1.2-0.9
		l-1.7-0.4c-1.9-0.4-2.8-1.3-2.8-2.8C846.5,252.4,848.1,251.2,850.5,251.2z"/>
	<path class="st5" d="M856.9,247.7h2.5V261h-2.5V247.7z"/>
	<path class="st5" d="M870.7,261h-2.5v-1.5H868c-0.5,1.1-1.3,1.7-2.8,1.7c-2.1,0-3.4-1.3-3.4-3.5v-6.3h2.5v5.6c0,1.3,0.6,2,1.8,2
		c1.3,0,1.9-0.8,1.9-2.1v-5.5h2.5v9.6H870.7z"/>
	<path class="st5" d="M873,248.8c0-0.8,0.6-1.3,1.5-1.3s1.5,0.5,1.5,1.3c0,0.7-0.6,1.3-1.5,1.3S873,249.5,873,248.8z M873.2,251.4
		h2.5v9.6h-2.5V251.4z"/>
	<path class="st5" d="M881.6,249.1v2.4h2v2h-2v4.3c0,0.8,0.4,1.2,1.2,1.2c0.3,0,0.5,0,0.7,0v1.9c-0.3,0.1-0.8,0.1-1.3,0.1
		c-2.3,0-3.3-0.8-3.3-2.6v-4.9h-1.5v-2h1.5v-2.4H881.6z"/>
	<path class="st5" d="M885.5,248.8c0-0.8,0.6-1.3,1.5-1.3s1.5,0.5,1.5,1.3c0,0.7-0.6,1.3-1.5,1.3C886,250.1,885.5,249.5,885.5,248.8
		z M885.7,251.4h2.5v9.6h-2.5V251.4z"/>
	<path class="st5" d="M890.8,251.4h2.5v1.5h0.2c0.4-1.1,1.4-1.7,2.8-1.7c2.1,0,3.3,1.3,3.3,3.6v6.2H897v-5.6c0-1.3-0.6-2-1.8-2
		s-1.9,0.8-1.9,2.1v5.5h-2.5V251.4z"/>
	<path class="st5" d="M901.8,261.8h2.5c0.1,0.6,0.8,1,1.9,1c1.4,0,2.1-0.6,2.1-1.7v-1.8h-0.2c-0.5,1-1.5,1.5-2.9,1.5
		c-2.4,0-3.9-1.9-3.9-4.7c0-3,1.5-4.9,3.9-4.9c1.3,0,2.4,0.6,2.9,1.7h0.2v-1.5h2.5v9.6c0,2.3-1.8,3.7-4.7,3.7
		C903.6,264.6,901.9,263.5,901.8,261.8z M908.4,256.1c0-1.7-0.8-2.7-2.2-2.7s-2.2,1.1-2.2,2.7c0,1.7,0.8,2.7,2.2,2.7
		S908.4,257.8,908.4,256.1z"/>
</g>
<g class="st0">
	<path class="st6" d="M42.6,261v-10.3h-3.8v-2.2H49v2.2h-3.8V261H42.6z"/>
	<path class="st6" d="M50.6,248.8c0-0.8,0.6-1.3,1.5-1.3s1.5,0.5,1.5,1.3c0,0.7-0.6,1.3-1.5,1.3C51.2,250.1,50.6,249.5,50.6,248.8z
		 M50.9,251.4h2.5v9.6h-2.5V251.4z"/>
	<path class="st6" d="M58.5,261.3c0,2-1.2,3-3.4,3c-0.2,0-0.6,0-0.7,0v-1.9c0.1,0,0.2,0,0.3,0c0.9,0,1.2-0.3,1.2-1.1v-9.8h2.5v9.8
		H58.5z M55.7,248.8c0-0.8,0.6-1.3,1.5-1.3s1.5,0.5,1.5,1.3c0,0.7-0.6,1.3-1.5,1.3S55.7,249.5,55.7,248.8z"/>
	<path class="st6" d="M60.6,256.2c0-3.1,1.5-4.9,3.9-4.9c1.3,0,2.4,0.6,2.9,1.7h0.1v-5.2H70V261h-2.5v-1.5h-0.2
		c-0.5,1-1.6,1.7-2.9,1.7C62.1,261.1,60.6,259.3,60.6,256.2z M63.2,256.2c0,1.8,0.8,2.8,2.2,2.8s2.2-1.1,2.2-2.8
		c0-1.7-0.8-2.8-2.2-2.8S63.2,254.4,63.2,256.2z"/>
	<path class="st6" d="M81.2,258.3c-0.4,1.8-2,2.9-4.4,2.9c-2.9,0-4.6-1.8-4.6-5c0-3.1,1.8-5.1,4.6-5.1c2.8,0,4.5,1.8,4.5,4.8v0.8
		h-6.6v0.1c0,1.4,0.9,2.3,2.2,2.3c1,0,1.7-0.4,2-1h2.3V258.3z M74.7,255.2h4.1c-0.1-1.3-0.8-2.1-2-2.1
		C75.6,253.1,74.8,254,74.7,255.2z"/>
	<path class="st6" d="M83.3,251.4h2.5v1.5H86c0.4-1.1,1.4-1.7,2.8-1.7c2.1,0,3.3,1.3,3.3,3.6v6.2h-2.5v-5.6c0-1.3-0.6-2-1.8-2
		c-1.2,0-1.9,0.8-1.9,2.1v5.5h-2.5L83.3,251.4L83.3,251.4z"/>
	<path class="st6" d="M98.3,251.2c2.4,0,3.9,1,4,2.9H100c-0.1-0.6-0.7-1-1.7-1c-0.9,0-1.6,0.4-1.6,1c0,0.5,0.4,0.8,1.3,1l1.8,0.4
		c1.9,0.4,2.7,1.2,2.7,2.6c0,1.9-1.7,3.2-4.2,3.2s-4.1-1-4.2-2.9h2.5c0.2,0.7,0.8,1,1.8,1s1.7-0.4,1.7-1c0-0.5-0.4-0.8-1.2-0.9
		l-1.7-0.4c-1.9-0.4-2.8-1.3-2.8-2.8C94.3,252.4,95.9,251.2,98.3,251.2z"/>
	<path class="st6" d="M115.3,254.8c-0.2-0.9-0.8-1.5-1.9-1.5c-1.4,0-2.1,1-2.1,2.9c0,1.9,0.8,2.9,2.1,2.9c1,0,1.7-0.5,1.9-1.5h2.4
		c-0.2,2.1-1.8,3.5-4.3,3.5c-3,0-4.7-1.8-4.7-5c0-3.2,1.7-5,4.7-5c2.5,0,4.1,1.4,4.3,3.6L115.3,254.8L115.3,254.8z"/>
	<path class="st6" d="M119.1,258.3c0-1.7,1.3-2.7,3.7-2.9l2.3-0.1v-0.8c0-0.8-0.6-1.3-1.6-1.3c-0.9,0-1.5,0.3-1.7,0.9h-2.3
		c0.2-1.8,1.8-2.9,4.2-2.9c2.5,0,4,1.2,4,3.3v6.5h-2.5v-1.3H125c-0.5,0.9-1.5,1.4-2.8,1.4C120.4,261.1,119.1,260,119.1,258.3z
		 M125.2,257.5v-0.7l-1.9,0.1c-1.1,0.1-1.6,0.5-1.6,1.2s0.6,1.1,1.5,1.1C124.3,259.2,125.2,258.5,125.2,257.5z"/>
	<path class="st6" d="M130.1,251.4h2.5v1.5h0.2c0.3-1,1.2-1.7,2.5-1.7c0.3,0,0.8,0,1,0.1v2.3c-0.2-0.1-0.8-0.2-1.2-0.2
		c-1.4,0-2.3,0.8-2.3,2.2v5.3h-2.5v-9.5H130.1z"/>
	<path class="st6" d="M138,251.4h2.5v1.5h0.2c0.3-1,1.2-1.7,2.5-1.7c0.3,0,0.8,0,1,0.1v2.3c-0.2-0.1-0.8-0.2-1.2-0.2
		c-1.4,0-2.3,0.8-2.3,2.2v5.3H138V251.4z"/>
	<path class="st6" d="M145.5,248.8c0-0.8,0.6-1.3,1.5-1.3s1.5,0.5,1.5,1.3c0,0.7-0.6,1.3-1.5,1.3S145.5,249.5,145.5,248.8z
		 M145.7,251.4h2.5v9.6h-2.5V251.4z"/>
	<path class="st6" d="M159.4,258.3c-0.4,1.8-2,2.9-4.4,2.9c-2.9,0-4.6-1.8-4.6-5c0-3.1,1.8-5.1,4.6-5.1s4.5,1.8,4.5,4.8v0.8h-6.6
		v0.1c0,1.4,0.9,2.3,2.2,2.3c1,0,1.7-0.4,2-1h2.3V258.3z M154,249.9l-2.5-3.1h2.7l2.1,3.1H154z M152.9,255.2h4.1
		c-0.1-1.3-0.8-2.1-2-2.1C153.8,253.1,153,254,152.9,255.2z"/>
	<path class="st6" d="M161.5,251.4h2.5v1.5h0.2c0.3-1,1.2-1.7,2.5-1.7c0.3,0,0.8,0,1,0.1v2.3c-0.2-0.1-0.8-0.2-1.2-0.2
		c-1.4,0-2.3,0.8-2.3,2.2v5.3h-2.5v-9.5H161.5z"/>
	<path class="st6" d="M177.6,258.3c-0.4,1.8-2,2.9-4.4,2.9c-2.9,0-4.6-1.8-4.6-5c0-3.1,1.8-5.1,4.6-5.1s4.5,1.8,4.5,4.8v0.8h-6.6
		v0.1c0,1.4,0.9,2.3,2.2,2.3c1,0,1.7-0.4,2-1h2.3V258.3z M171.1,255.2h4.1c-0.1-1.3-0.8-2.1-2-2.1C172,253.1,171.2,254,171.1,255.2z
		"/>
</g>
<rect id="Rectangle_10" x="37" y="229" class="st6" width="383.3" height="11"/>
<rect id="Rectangle_11" x="424.5" y="229" class="st1" width="383.3" height="11"/>
<rect id="Rectangle_12" x="812" y="229" class="st5" width="383.3" height="11"/>
<path class="st7" d="M469.7,167.8"/>
<g>
	<line class="st8" x1="302.2" y1="144.3" x2="541.8" y2="144.3"/>
	<circle id="Ellipse_47_3_" class="st9" cx="422.1" cy="144.3" r="16.7"/>
	<text transform="matrix(1 0 0 1 416.96 150.8)" class="st10 st11 st12">2</text>
</g>
<g>
	<line class="st13" x1="113.2" y1="174.3" x2="407.3" y2="174.3"/>
	<circle id="Ellipse_47_1_" class="st14" cx="255.9" cy="174.3" r="16.7"/>
	<text transform="matrix(1 0 0 1 250.8381 180.8)" class="st10 st11 st12">1</text>
</g>
</svg>
