<?xml version="1.0" encoding="utf-8"?>
<!-- Generator: Adobe Illustrator 24.2.3, SVG Export Plug-In . SVG Version: 6.00 Build 0)  -->
<svg version="1.1" id="Component_2_1" xmlns="http://www.w3.org/2000/svg" xmlns:xlink="http://www.w3.org/1999/xlink" x="0px"
	 y="0px" viewBox="0 0 62 41" style="enable-background:new 0 0 62 41;" xml:space="preserve">
<style type="text/css">
	.st0{fill:#FFFFFF;}
	.st1{fill:#FFFFFF;stroke:#000000;stroke-width:3;}
	.st2{fill:none;stroke:#000000;stroke-width:3;stroke-linecap:round;stroke-linejoin:round;}
</style>
<g id="Group_93" transform="translate(-800 -917)">
	<g id="Rectangle_13" transform="translate(800 917)">
		<path class="st0" d="M0,21v-1C0,9,9,0,20,0h22c11,0,20,9,20,20v1c0,11-9,20-20,20H20C9,41,0,32,0,21z"/>
		<path class="st1" d="M1.5,21v-1C1.5,9.8,9.8,1.5,20,1.5h22c10.2,0,18.5,8.3,18.5,18.5v1c0,10.2-8.3,18.5-18.5,18.5H20
			C9.8,39.5,1.5,31.2,1.5,21z"/>
	</g>
	<g id="Icon_feather-arrow-left-circle" transform="translate(794.008 974.306) rotate(-90)">
		<path id="Path_16" class="st2" d="M26.3,36.6L37,47.3l10.7-10.7"/>
		<path id="Path_17" class="st2" d="M37,26v21.3"/>
	</g>
</g>
</svg>
