<?xml version="1.0" encoding="utf-8"?>
<!-- Generator: Adobe Illustrator 24.2.3, SVG Export Plug-In . SVG Version: 6.00 Build 0)  -->
<svg version="1.1" id="Component_2_1" xmlns="http://www.w3.org/2000/svg" xmlns:xlink="http://www.w3.org/1999/xlink" x="0px"
	 y="0px" viewBox="0 0 41 62" style="enable-background:new 0 0 41 62;" xml:space="preserve">
<style type="text/css">
	.st0{fill:#FFFFFF;}
	.st1{fill:#FFFFFF;stroke:#000000;stroke-width:3;}
	.st2{fill:none;stroke:#000000;stroke-width:3;stroke-linecap:round;stroke-linejoin:round;}
</style>
<g id="Group_93" transform="translate(-800 -917)">
	<g id="Rectangle_13" transform="translate(800 917)">
		<path class="st0" d="M20,0h1c11,0,20,9,20,20v22c0,11-9,20-20,20h-1C9,62,0,53,0,42V20C0,9,9,0,20,0z"/>
		<path class="st1" d="M20,1.5h1c10.2,0,18.5,8.3,18.5,18.5v22c0,10.2-8.3,18.5-18.5,18.5h-1C9.8,60.5,1.5,52.2,1.5,42V20
			C1.5,9.8,9.8,1.5,20,1.5z"/>
	</g>
	<g id="Icon_feather-arrow-left-circle" transform="translate(794.008 974.306) rotate(-90)">
		<path id="Path_16" class="st2" d="M26.7,16L16,26.7l10.7,10.7"/>
		<path id="Path_17" class="st2" d="M37.3,26.7H16"/>
	</g>
</g>
</svg>
