<svg xmlns="http://www.w3.org/2000/svg" width="1145.355" height="825.548" viewBox="0 0 1145.355 825.548">
  <g id="Component_2_2" data-name="Component 2 – 2" transform="translate(1.464 1.5)">
    <line id="Line_1" data-name="Line 1" x2="127" transform="translate(230.706 623.461)" fill="none" stroke="#25486e" stroke-width="3"/>
    <path id="Path_81" data-name="Path 81" d="M5926.33,8382.5a31.555,31.555,0,0,1-5.537,0c-111.223,0-240.582-235.285-376.729,107.117" transform="translate(-5389.794 -8210.039)" fill="none" stroke="#25486e" stroke-width="3"/>
    <path id="Path_87" data-name="Path 87" d="M5929.016,5027.2c-96.861,85.749-243.285,122.569-387.041-2" transform="translate(-5389.794 -4739.039)" fill="none" stroke="#25486e" stroke-width="3"/>
    <path id="Path_88" data-name="Path 88" d="M5929.016,5106.727c-146.185,138.982-272.88,134.073-387.544-79.125" transform="translate(-5389.794 -4739.039)" fill="none" stroke="#25486e" stroke-width="3"/>
    <path id="Path_89" data-name="Path 89" d="M6369.5,5181.2c156.32,8.3,176.909,355.673-134.523,328.058-219.042-19.423-564.924-256.488-695.121-466.191" transform="translate(-5389.794 -4739.039)" fill="none" stroke="#25486e" stroke-width="3"/>
    <path id="Path_90" data-name="Path 90" d="M5538.855,5050.5c94.367,160.746,198.508,233.229,198.508,278.262" transform="translate(-5389.794 -4739.039)" fill="none" stroke="#25486e" stroke-width="3"/>
    <path id="Path_71" data-name="Path 71" d="M5978.082,8432.987v27.458" transform="translate(-5389.794 -8210.039)" fill="none" stroke="#25486e" stroke-width="3"/>
    <path id="Path_72" data-name="Path 72" d="M6136.242,8495.2c-83.767,0-71.133-90.263-100.789-90.263a65.537,65.537,0,0,1-7.85,0" transform="translate(-5389.794 -8210.039)" fill="none" stroke="#25486e" stroke-width="3"/>
    <path id="Path_73" data-name="Path 73" d="M6027.6,8411.5s3.191-.142,7.5,0c35.24,1.8,25.011,158.969,101.517,158.969" transform="translate(-5389.794 -8210.039)" fill="none" stroke="#25486e" stroke-width="3"/>
    <path id="Path_74" data-name="Path 74" d="M6027.6,8417.5h7.691c35.438,0,23.164,236.012,100.939,236.012" transform="translate(-5389.794 -8210.039)" fill="none" stroke="#25486e" stroke-width="3"/>
    <path id="Path_75" data-name="Path 75" d="M6027.6,8423.5s2.707.135,7.818,0c34.029-.9-28.123,350.722,232.648,485.331,81.064,41.846,178.039-27.627,103.223-157.212" transform="translate(-5389.794 -8210.039)" fill="none" stroke="#25486e" stroke-width="3"/>
    <path id="Path_76" data-name="Path 76" d="M6027.6,8399.5s3.172.019,7.971,0c46.086-.178,44.444,8.895,101.014,8.895" transform="translate(-5389.794 -8210.039)" fill="none" stroke="#25486e" stroke-width="3"/>
    <path id="Path_77" data-name="Path 77" d="M6027.6,8393.5a7.9,7.9,0,0,0,8.59,0c98.124-65.437,390.634-79.183,335.263,6.095" transform="translate(-5389.794 -8210.039)" fill="none" stroke="#25486e" stroke-width="3"/>
    <path id="Path_78" data-name="Path 78" d="M6027.6,8387.5s4.512,1.844,7.871,0c297.133-155.551,424.3-4.988,336.129,97.295" transform="translate(-5389.794 -8210.039)" fill="none" stroke="#25486e" stroke-width="3"/>
    <path id="Path_79" data-name="Path 79" d="M6027.6,8381.5s3.414,1.83,8.393,0c179.266-132.795,530.8-75.568,335,188.471" transform="translate(-5389.794 -8210.039)" fill="none" stroke="#25486e" stroke-width="3"/>
    <path id="Path_80" data-name="Path 80" d="M5926.33,8388.5s-2.49.06-6.241,0c-66.752-1.06-93.135,15.1-164.142,14.84" transform="translate(-5389.794 -8210.039)" fill="none" stroke="#25486e" stroke-width="3"/>
    <path id="Path_82" data-name="Path 82" d="M5926.33,8415.5a23.738,23.738,0,0,1-6.259,0c-74.7,0-166.958,291.192-166.958,382.711" transform="translate(-5389.794 -8210.039)" fill="none" stroke="#25486e" stroke-width="3"/>
    <path id="Path_83" data-name="Path 83" d="M5620,8801.828c85.672-45.1,223.879-396.561,300.724-392.911,3,.143,5.8,0,5.8,0" transform="translate(-5389.794 -8210.039)" fill="none" stroke="#25486e" stroke-width="3"/>
    <path id="Path_84" data-name="Path 84" d="M5926.523,8402.941s-3.139-.031-6.279,0c-77.388.771-255.211,327.467-403.752,397" transform="translate(-5389.794 -8210.039)" fill="none" stroke="#25486e" stroke-width="3"/>
    <path id="Path_70" data-name="Path 70" d="M5746.291,3016.241c-.922-1.126,3.577-9.43-.548-10.643-329.56-37.884-398.891-232.275-302.293-366.219" transform="translate(-5389.794 -2425.039)" fill="none" stroke="#25486e" stroke-width="3"/>
    <path id="Path_69" data-name="Path 69" d="M5543.359,2609.2a58.839,58.839,0,0,1,6.562,1.058c54.114.258,123.075-97.139,376.964,4" transform="translate(-5389.794 -2425.039)" fill="none" stroke="#25486e" stroke-width="3"/>
    <path id="Path_65" data-name="Path 65" d="M5543.574,3751.134s2.988.105,6.151,0c69.09-2.3,60.542,6.638,103.25,6.638" transform="translate(-5389.794 -3562.039)" fill="none" stroke="#25486e" stroke-width="3"/>
    <path id="Path_64" data-name="Path 64" d="M5970.082,3955.5c-88.561,295.2-708.2,142.2-526.17-173.078" transform="translate(-5389.794 -3562.039)" fill="none" stroke="#25486e" stroke-linecap="round" stroke-width="3"/>
    <path id="Path_58" data-name="Path 58" d="M5652.865,3842.232c-39.787-.656,19.245-93.427-101.065-86.792-4.294-.167-7.187-.406-7.187-.406" transform="translate(-5389.794 -3562.039)" fill="none" stroke="#25486e" stroke-width="3"/>
    <path id="Path_57" data-name="Path 57" d="M5926.451,3840.941s-123.593,97.2-239.734,71.85c-122.711-27.162,10.258-157.175-134.74-152.591-5.011.1-8.617,0-8.617,0" transform="translate(-5389.794 -3562.039)" fill="none" stroke="#25486e" stroke-width="3"/>
    <path id="Path_56" data-name="Path 56" d="M6136.922,3926.941c-21.068,37.585-255.408,112.666-480.151-17.09-95.253-54.994,25.881-141.534-104.833-144.3-5.656-.12-9.93-.426-9.93-.426" transform="translate(-5389.794 -3562.039)" fill="none" stroke="#25486e" stroke-width="3"/>
    <path id="Path_54" data-name="Path 54" d="M6136.922,4098.941c-152.575,0-269.122-48.41-488.385-177.1-109.906-64.508,12.055-148.276-96.577-146.389a69.969,69.969,0,0,0-7.919-.387" transform="translate(-5389.794 -3562.039)" fill="none" stroke="#25486e" stroke-width="3"/>
    <path id="Path_55" data-name="Path 55" d="M6136.922,4013.2s-262.838,3.286-438.41-72.886-18.75-169.863-146.936-169.773c-3.65.045-7.531,0-7.531,0" transform="translate(-5389.794 -3562.039)" fill="none" stroke="#25486e" stroke-width="3"/>
    <path id="Path_52" data-name="Path 52" d="M6369.5,4098.941c59.559,0,143.75,205.272-96.125,199.9-223.776-1.864-498.392-265.762-631.706-358.57s4.444-158.128-90.353-154.428c-5.049.2-8.336,0-8.336,0" transform="translate(-5389.794 -3562.039)" fill="none" stroke="#25486e" stroke-width="3"/>
    <path id="Path_53" data-name="Path 53" d="M6369.5,4185.5c45.68,0,94.417,96.766-90.026,96.766-211.033-3-488.695-267.468-638.815-354.141-112.375-64.88,7.612-148.995-86.206-147.583-6.624-.22-10.548,0-10.548,0" transform="translate(-5389.794 -3562.039)" fill="none" stroke="#25486e" stroke-width="3"/>
    <path id="Path_51" data-name="Path 51" d="M6374,4013.2c91.509,0,185.038,306.913-112.809,306.913-189.975,0-423.225-212.98-600.545-346.76s-17.37-183.76-108.736-182.362c-5.187-.3-11.9,0-13.855,0" transform="translate(-5389.794 -3562.039)" fill="none" stroke="#25486e" stroke-width="3"/>
    <path id="Path_50" data-name="Path 50" d="M6136.922,3840.941c-135.695,0,21.408-244.944-213.654-244.944-315,0-300.914,147.167-370.992,147.167a24.522,24.522,0,0,0-8.737,0" transform="translate(-5389.794 -3562.039)" fill="none" stroke="#25486e" stroke-width="3"/>
    <path id="Path_49" data-name="Path 49" d="M5545.309,3737.867l6.757.2c55.416,0,25.572-162.356,455.781-150.851,122.459,3.275,26.194,166.732,129.076,166.732" transform="translate(-5389.794 -3562.039)" fill="none" stroke="#25486e" stroke-width="3"/>
    <path id="Path_48" data-name="Path 48" d="M5545.566,3733.079h6.526c42.318,0-6.433-155.095,445.985-155.095,376.633,0,442.6,177.219,372.418,177.219" transform="translate(-5389.794 -3562.039)" fill="none" stroke="#25486e" stroke-width="3"/>
    <path id="Path_47" data-name="Path 47" d="M6369.5,3840.941c66.971,0,123.382-271.484-370.605-271.484-464.062,0-424,159.367-446.893,159.367h-7.33" transform="translate(-5389.794 -3562.039)" fill="none" stroke="#25486e" stroke-width="3"/>
    <path id="Path_46" data-name="Path 46" d="M6373.66,3927.75c69.91,0,204.731-365.711-379.32-365.711-404.28,0-437.352,131.57-441.3,160.512-.45,3.292-7.342,1.8-7.342,1.8" transform="translate(-5389.794 -3562.039)" fill="none" stroke="#25486e" stroke-width="3"/>
    <path id="Path_85" data-name="Path 85" d="M5493,4960.5v27.873" transform="translate(-5389.794 -4739.039)" fill="none" stroke="#25486e" stroke-width="3"/>
    <path id="Path_86" data-name="Path 86" d="M5653.44,4931.941c-51.213,0-55.184,90.634-111.167,90.634" transform="translate(-5389.794 -4739.039)" fill="none" stroke="#25486e" stroke-width="3"/>
    <path id="Path_99" data-name="Path 99" d="M2003.953,4044.727c-329.947,70.9-265.5-207.164-384.4-261.615" transform="translate(-1254.794 -3582.039)" fill="none" stroke="#25486e" stroke-width="3"/>
    <path id="Path_100" data-name="Path 100" d="M2133.68,4204.941c-433.352,0-436.264-412.21-514.378-412.21" transform="translate(-1254.794 -3582.039)" fill="none" stroke="#25486e" stroke-width="3"/>
    <path id="Path_104" data-name="Path 104" d="M1843.72,3975.5c-15.447,215.113,193.577,301.1,335.819,297.594,159.48-4.527,137.727-228.738,56.531-229.652" transform="translate(-1254.794 -3582.039)" fill="none" stroke="#25486e" stroke-width="3"/>
    <path id="Path_105" data-name="Path 105" d="M2003.953,3786.5c-32.265,0-35.034,147.188,0,147.188" transform="translate(-1254.794 -3582.039)" fill="none" stroke="#25486e" stroke-width="3"/>
    <path id="Path_107" data-name="Path 107" d="M2103.143,3774.125c28.106,0,8.771,141.609,36.656,141.609" transform="translate(-1254.794 -3582.039)" fill="none" stroke="#25486e" stroke-width="3"/>
    <path id="Path_108" data-name="Path 108" d="M2133.68,4119.939c-27.521,0-3.414-321.122-29.992-321.122" transform="translate(-1254.794 -3582.039)" fill="none" stroke="#25486e" stroke-width="3"/>
    <path id="Path_92" data-name="Path 92" d="M6030.3,8477.528c20.027,0,6.552,263.644,108.026,263.644" transform="translate(-5389.794 -8210.039)" fill="none" stroke="#25486e" stroke-width="3"/>
    <path id="Path_93" data-name="Path 93" d="M6272.919,8775.5c-252.279,142.161-216.422-259.229-248.232-259.229" transform="translate(-5389.794 -8210.039)" fill="none" stroke="#25486e" stroke-width="3"/>
    <path id="Path_102" data-name="Path 102" d="M1488.617,4234.25c-16.523,66.465,475.493,213.062,751.949,147.59,199.457-47.236,191.266-366.77-6.535-369.043" transform="translate(-1254.794 -3582.039)" fill="none" stroke="#25486e" stroke-width="3"/>
    <path id="Path_94" data-name="Path 94" d="M5926.813,8507.57c-44.167,22.528-52.141,539.706-256.922,355.685" transform="translate(-5389.794 -8210.039)" fill="none" stroke="#25486e" stroke-width="3"/>
    <path id="Path_109" data-name="Path 109" d="M1853.375,3975.5c0,184.678-159.793,440.785-333.614,261.391" transform="translate(-1254.794 -3582.039)" fill="none" stroke="#25486e" stroke-width="3"/>
    <path id="Path_97" data-name="Path 97" d="M1520.32,3785c-37.987.281-56.69,339.029-119.91,388.367" transform="translate(-1254.794 -3582.039)" fill="none" stroke="#25486e" stroke-width="3"/>
    <path id="Path_101" data-name="Path 101" d="M1351.578,4237.5c-16.523,66.465,626.884,216.308,903.34,150.836,199.457-47.236,185.863-378.387-19.953-385.539" transform="translate(-1254.794 -3582.039)" fill="none" stroke="#25486e" stroke-width="3"/>
    <path id="Path_95" data-name="Path 95" d="M5538.719,8861.5c377.463,267.164,352.135-342.263,392.987-342.263" transform="translate(-5389.794 -8210.039)" fill="none" stroke="#25486e" stroke-width="3"/>
    <path id="Path_110" data-name="Path 110" d="M1865.875,3973.433c0,261.621-189.726,465.567-491,262.157" transform="translate(-1254.794 -3582.039)" fill="none" stroke="#25486e" stroke-width="3"/>
    <path id="Path_96" data-name="Path 96" d="M9913,13426.526s92.819-321.865,150.359-321.865" transform="translate(-9524.794 -12838.039)" fill="none" stroke="#25486e" stroke-width="3"/>
    <path id="Path_98" data-name="Path 98" d="M1615.016,3802.848c48.709,0,19.43,368.152,19.43,368.152" transform="translate(-1254.794 -3582.039)" fill="none" stroke="#25486e" stroke-width="3"/>
    <path id="Path_103" data-name="Path 103" d="M1611.57,4233.434C1595.047,4299.9,1906.8,4434.5,2217.449,4377.57c201.02-36.842,214.367-346.7,17.359-358.5" transform="translate(-1254.794 -3582.039)" fill="none" stroke="#25486e" stroke-width="3"/>
    <path id="Path_111" data-name="Path 111" d="M1525.059,3893.5c-128.62,117.9-283.44,248.665-269.371,335.316,19.22,118.383,249.1,158.96,340.5,7.762" transform="translate(-1254.794 -3582.039)" fill="none" stroke="#25486e" stroke-width="3"/>
    <path id="Path_112" data-name="Path 112" d="M1814.082,3973.433c-32.942,159.681-102.344,309.364-155.418,258.552" transform="translate(-1254.794 -3582.039)" fill="none" stroke="#25486e" stroke-width="3"/>
    <path id="Path_106" data-name="Path 106" d="M2054.082,3805.69v29.021" transform="translate(-1254.794 -3582.039)" fill="none" stroke="#25486e" stroke-width="3"/>
    <path id="Path_113" data-name="Path 113" d="M2054.082,3885.5v36.57" transform="translate(-1254.794 -3582.039)" fill="none" stroke="#25486e" stroke-width="3"/>
    <path id="Path_114" data-name="Path 114" d="M2003.953,3888.271c-24.393,0-24.822,122.607,0,122.607" transform="translate(-1254.794 -3582.039)" fill="none" stroke="#25486e" stroke-width="3"/>
    <path id="Path_115" data-name="Path 115" d="M2133.68,3929.2c-16.122,0-17.851-37.988-38.31-37.988" transform="translate(-1254.794 -3582.039)" fill="none" stroke="#25486e" stroke-width="3"/>
    <path id="Path_116" data-name="Path 116" d="M2137.919,3948.6h-38.068" transform="translate(-1254.794 -3582.039)" fill="none" stroke="#25486e" stroke-width="3"/>
    <path id="Path_117" data-name="Path 117" d="M2100.5,4147.5c20.752,0,16.106,30.533,33.906,30.533" transform="translate(-1254.794 -3582.039)" fill="none" stroke="#25486e" stroke-width="3"/>
  </g>
</svg>
