<svg xmlns="http://www.w3.org/2000/svg" width="1145.355" height="632.661" viewBox="0 0 1145.355 632.661">
  <g id="Component_1_2" data-name="Component 1 – 2" transform="translate(1.464 1.502)">
    <line id="Line_1" data-name="Line 1" x2="127" transform="translate(230.706 430.572)" fill="none" stroke="#c9d3de" stroke-width="3"/>
    <path id="Path_83" data-name="Path 83" d="M5620,8801.828c85.672-45.1,223.879-396.561,300.724-392.911,3,.143,5.8,0,5.8,0" transform="translate(-5389.794 -8402.928)" fill="none" stroke="#c9d3de" stroke-width="3"/>
    <path id="Path_94" data-name="Path 94" d="M5926.813,8507.57c-44.167,22.528-52.141,539.706-256.922,355.685" transform="translate(-5389.794 -8402.928)" fill="none" stroke="#c9d3de" stroke-width="3"/>
    <path id="Path_109" data-name="Path 109" d="M1853.375,3975.5c0,184.678-159.793,440.785-333.614,261.391" transform="translate(-1254.794 -3774.928)" fill="none" stroke="#c9d3de" stroke-width="3"/>
    <path id="Path_102" data-name="Path 102" d="M1488.617,4234.25c-16.523,66.465,475.493,213.062,751.949,147.59,199.457-47.236,191.266-366.77-6.535-369.043" transform="translate(-1254.794 -3774.928)" fill="none" stroke="#c9d3de" stroke-width="3"/>
    <path id="Path_82" data-name="Path 82" d="M5926.33,8415.5a23.738,23.738,0,0,1-6.259,0c-74.7,0-166.958,291.192-166.958,382.711" transform="translate(-5389.794 -8402.928)" fill="none" stroke="#c9d3de" stroke-width="3"/>
    <path id="Path_70" data-name="Path 70" d="M5746.291,3016.241c-.922-1.126,3.577-9.43-.548-10.643-329.56-37.884-398.891-232.275-302.293-366.219" transform="translate(-5389.794 -2617.928)" fill="none" stroke="#c9d3de" stroke-width="3"/>
    <path id="Path_96" data-name="Path 96" d="M9913,13426.526s92.819-321.865,150.359-321.865" transform="translate(-9524.794 -13030.928)" fill="none" stroke="#c9d3de" stroke-width="3"/>
    <path id="Path_98" data-name="Path 98" d="M1615.016,3802.848c48.709,0,19.43,368.152,19.43,368.152" transform="translate(-1254.794 -3774.928)" fill="none" stroke="#c9d3de" stroke-width="3"/>
    <path id="Path_103" data-name="Path 103" d="M1611.57,4233.434C1595.047,4299.9,1906.8,4434.5,2217.449,4377.57c201.02-36.842,214.367-346.7,17.359-358.5" transform="translate(-1254.794 -3774.928)" fill="none" stroke="#c9d3de" stroke-width="3"/>
    <path id="Path_111" data-name="Path 111" d="M1525.059,3893.5c-128.62,117.9-283.44,248.665-269.371,335.316,19.22,118.383,249.1,158.96,340.5,7.762" transform="translate(-1254.794 -3774.928)" fill="none" stroke="#c9d3de" stroke-width="3"/>
    <path id="Path_112" data-name="Path 112" d="M1814.082,3973.433c-32.942,159.681-102.344,309.364-155.418,258.552" transform="translate(-1254.794 -3774.928)" fill="none" stroke="#c9d3de" stroke-width="3"/>
    <path id="Path_90" data-name="Path 90" d="M5538.855,5050.5c94.367,160.746,198.508,233.229,198.508,278.262" transform="translate(-5389.794 -4931.928)" fill="none" stroke="#c9d3de" stroke-width="3"/>
    <path id="Path_84" data-name="Path 84" d="M5926.523,8402.941s-3.139-.031-6.279,0c-77.388.771-255.211,327.467-403.752,397" transform="translate(-5389.794 -8402.928)" fill="none" stroke="#c9d3de" stroke-width="3"/>
    <path id="Path_101" data-name="Path 101" d="M1351.578,4237.5c-16.523,66.465,626.884,216.308,903.34,150.836,199.457-47.236,185.863-378.387-19.953-385.539" transform="translate(-1254.794 -3774.928)" fill="none" stroke="#c9d3de" stroke-width="3"/>
    <path id="Path_95" data-name="Path 95" d="M5538.719,8861.5c377.463,267.164,352.135-342.263,392.987-342.263" transform="translate(-5389.794 -8402.928)" fill="none" stroke="#c9d3de" stroke-width="3"/>
    <path id="Path_110" data-name="Path 110" d="M1865.875,3973.433c0,261.621-189.726,465.567-491,262.157" transform="translate(-1254.794 -3774.928)" fill="none" stroke="#c9d3de" stroke-width="3"/>
    <path id="Path_97" data-name="Path 97" d="M1520.32,3785c-37.987.281-56.69,339.029-119.91,388.367" transform="translate(-1254.794 -3774.928)" fill="none" stroke="#c9d3de" stroke-width="3"/>
  </g>
</svg>
