<?xml version="1.0" encoding="utf-8"?>
<!-- Generator: Adobe Illustrator 24.2.3, SVG Export Plug-In . SVG Version: 6.00 Build 0)  -->
<svg version="1.1" id="Layer_1" xmlns="http://www.w3.org/2000/svg" xmlns:xlink="http://www.w3.org/1999/xlink" x="0px" y="0px"
	 viewBox="0 0 1145.4 825.5" style="enable-background:new 0 0 1145.4 825.5;" xml:space="preserve">
<style type="text/css">
	.st0{fill:none;stroke:#25486E;stroke-width:3;}
	.st1{fill:none;stroke:#25486E;stroke-width:3;stroke-linecap:round;}
</style>
<line id="Line_1" class="st0" x1="232.2" y1="625" x2="359.2" y2="625"/>
<path id="Path_81" class="st0" d="M538,174c-1.8,0.2-3.7,0.2-5.5,0c-111.2,0-240.6-235.3-376.7,107.1"/>
<path id="Path_87" class="st0" d="M540.7,289.7c-96.9,85.7-243.3,122.6-387-2"/>
<path id="Path_88" class="st0" d="M540.7,369.2c-146.2,139-272.9,134.1-387.5-79.1"/>
<path id="Path_89" class="st0" d="M981.2,443.7c156.3,8.3,176.9,355.7-134.5,328.1c-219-19.4-564.9-256.5-695.1-466.2"/>
<path id="Path_90" class="st0" d="M150.5,313C244.9,473.7,349,546.2,349,591.2"/>
<path id="Path_71" class="st0" d="M589.8,224.4v27.5"/>
<path id="Path_72" class="st0" d="M747.9,286.7c-83.8,0-71.1-90.3-100.8-90.3c-2.6,0.2-5.2,0.2-7.9,0"/>
<path id="Path_73" class="st0" d="M639.3,203c0,0,3.2-0.1,7.5,0c35.2,1.8,25,159,101.5,159"/>
<path id="Path_74" class="st0" d="M639.3,209h7.7c35.4,0,23.2,236,100.9,236"/>
<path id="Path_75" class="st0" d="M639.3,215c0,0,2.7,0.1,7.8,0c34-0.9-28.1,350.7,232.6,485.3c81.1,41.8,178-27.6,103.2-157.2"/>
<path id="Path_76" class="st0" d="M639.3,191c0,0,3.2,0,8,0c46.1-0.2,44.4,8.9,101,8.9"/>
<path id="Path_77" class="st0" d="M639.3,185c2.6,1.7,6,1.7,8.6,0c98.1-65.4,390.6-79.2,335.3,6.1"/>
<path id="Path_78" class="st0" d="M639.3,179c0,0,4.5,1.8,7.9,0c297.1-155.6,424.3-5,336.1,97.3"/>
<path id="Path_79" class="st0" d="M639.3,173c0,0,3.4,1.8,8.4,0c179.3-132.8,530.8-75.6,335,188.5"/>
<path id="Path_80" class="st0" d="M538,180c0,0-2.5,0.1-6.2,0c-66.8-1.1-93.1,15.1-164.1,14.8"/>
<path id="Path_82" class="st0" d="M538,207c-2.1,0.3-4.2,0.3-6.3,0c-74.7,0-167,291.2-167,382.7"/>
<path id="Path_83_2_" class="st0" d="M207.1,623.2c0,0-8.7-12.4,24.6-29.9c77.3-35.4,223.9-396.6,300.7-392.9c3,0.1,5.8,0,5.8,0"/>
<path id="Path_84" class="st0" d="M538.2,194.4c0,0-3.1,0-6.3,0c-77.4,0.8-255.2,327.5-403.8,397"/>
<path id="Path_70" class="st0" d="M358,592.7c-0.9-1.1,3.6-9.4-0.5-10.6C27.9,544.2-41.5,349.8,55.1,215.8"/>
<path id="Path_69" class="st0" d="M155,185.7c2.2,0.2,4.4,0.6,6.6,1.1c54.1,0.3,123.1-97.1,377,4"/>
<path id="Path_65" class="st0" d="M155.2,190.6c0,0,3,0.1,6.2,0c69.1-2.3,60.5,6.6,103.2,6.6"/>
<path id="Path_64" class="st1" d="M581.8,395C493.2,690.2-126.4,537.2,55.6,221.9"/>
<path id="Path_58" class="st0" d="M264.5,281.7c-39.8-0.7,19.2-93.4-101.1-86.8c-4.3-0.2-7.2-0.4-7.2-0.4"/>
<path id="Path_57" class="st0" d="M538.1,280.4c0,0-123.6,97.2-239.7,71.9c-122.7-27.2,10.3-157.2-134.7-152.6c-5,0.1-8.6,0-8.6,0"
	/>
<path id="Path_56" class="st0" d="M748.6,366.4c-21.1,37.6-255.4,112.7-480.2-17.1c-95.3-55,25.9-141.5-104.8-144.3
	c-5.7-0.1-9.9-0.4-9.9-0.4"/>
<path id="Path_54" class="st0" d="M748.6,538.4c-152.6,0-269.1-48.4-488.4-177.1c-109.9-64.5,12.1-148.3-96.6-146.4
	c-2.6-0.3-5.3-0.4-7.9-0.4"/>
<path id="Path_55" class="st0" d="M748.6,452.7c0,0-262.8,3.3-438.4-72.9s-18.8-169.9-147-169.8c-3.6,0-7.5,0-7.5,0"/>
<path id="Path_52" class="st0" d="M981.2,538.4c59.6,0,143.8,205.3-96.1,199.9c-223.8-1.9-498.4-265.8-631.7-358.6
	s4.4-158.1-90.4-154.4c-5,0.2-8.3,0-8.3,0"/>
<path id="Path_53" class="st0" d="M981.2,625c45.7,0,94.4,96.8-90,96.8c-211-3-488.7-267.5-638.8-354.1
	c-112.4-64.9,7.6-149-86.2-147.6c-6.6-0.2-10.5,0-10.5,0"/>
<path id="Path_51" class="st0" d="M985.7,452.7c91.5,0,185,306.9-112.8,306.9c-190,0-423.2-213-600.5-346.8S255,229,163.7,230.4
	c-5.2-0.3-11.9,0-13.9,0"/>
<path id="Path_50" class="st0" d="M748.6,280.4c-135.7,0,21.4-244.9-213.7-244.9c-315,0-300.9,147.2-371,147.2
	c-2.9-0.5-5.8-0.5-8.7,0"/>
<path id="Path_49" class="st0" d="M157,177.3l6.8,0.2c55.4,0,25.6-162.4,455.8-150.9c122.4,3.4,26.1,166.8,129,166.8"/>
<path id="Path_48" class="st0" d="M157.2,172.5h6.5c42.3,0-6.4-155.1,446-155.1c376.6,0,442.6,177.2,372.4,177.2"/>
<path id="Path_47" class="st0" d="M981.2,280.4c67,0,123.4-271.5-370.6-271.5c-464.1,0-424,159.4-446.9,159.4h-7.3"/>
<path id="Path_46" class="st0" d="M985.3,367.2C1055.2,367.2,1190,1.5,606,1.5C201.7,1.5,168.7,133.1,164.7,162
	c-0.5,3.3-7.3,1.8-7.3,1.8"/>
<path id="Path_85" class="st0" d="M104.7,223v27.9"/>
<path id="Path_86" class="st0" d="M265.1,194.4c-51.2,0-55.2,90.6-111.2,90.6"/>
<path id="Path_99" class="st0" d="M750.6,464.2C420.7,535.1,485.1,257,366.2,202.6"/>
<path id="Path_100" class="st0" d="M880.3,624.4C447,624.4,444.1,212.2,366,212.2"/>
<path id="Path_104" class="st0" d="M590.4,395C574.9,610.1,784,696.1,926.2,692.6c159.5-4.5,137.7-228.7,56.5-229.7"/>
<path id="Path_105" class="st0" d="M750.6,206c-32.3,0-35,147.2,0,147.2"/>
<path id="Path_107" class="st0" d="M849.8,193.6c28.1,0,8.8,141.6,36.7,141.6"/>
<path id="Path_108" class="st0" d="M880.3,539.4c-27.5,0-3.4-321.1-30-321.1"/>
<path id="Path_92" class="st0" d="M642,269c20,0,6.6,263.6,108,263.6"/>
<path id="Path_93" class="st0" d="M884.6,567C632.3,709.1,668.2,307.7,636.4,307.7"/>
<path id="Path_102" class="st0" d="M235.3,653.7c-16.5,66.5,475.5,213.1,751.9,147.6c199.5-47.2,191.3-366.8-6.5-369"/>
<path id="Path_94" class="st0" d="M538.5,299c-44.2,22.5-52.1,539.7-256.9,355.7"/>
<path id="Path_109" class="st0" d="M600,395c0,184.7-159.8,440.8-333.6,261.4"/>
<path id="Path_97" class="st0" d="M267,204.5c-38,0.3-56.7,339-119.9,388.4"/>
<path id="Path_101" class="st0" d="M98.2,657c-16.5,66.5,626.9,216.3,903.3,150.8c199.5-47.2,185.9-378.4-20-385.5"/>
<path id="Path_95" class="st0" d="M150.4,653c377.5,267.2,352.1-342.3,393-342.3"/>
<path id="Path_110" class="st0" d="M612.5,392.9c0,261.6-189.7,465.6-491,262.2"/>
<path id="Path_96" class="st0" d="M389.7,590c0,0,92.8-321.9,150.4-321.9"/>
<path id="Path_98" class="st0" d="M361.7,222.3c48.7,0,19.4,368.2,19.4,368.2"/>
<path id="Path_103" class="st0" d="M358.2,652.9C341.7,719.4,653.5,854,964.1,797c201-36.8,214.4-346.7,17.4-358.5"/>
<path id="Path_111" class="st0" d="M271.7,313C143.1,430.9-11.7,561.6,2.4,648.3c19.2,118.4,249.1,159,340.5,7.8"/>
<path id="Path_112" class="st0" d="M560.8,392.9c-32.9,159.7-102.3,309.4-155.4,258.6"/>
<path id="Path_106" class="st0" d="M800.8,225.2v29"/>
<path id="Path_113" class="st0" d="M800.8,305v36.6"/>
<path id="Path_114" class="st0" d="M750.6,307.7c-24.4,0-24.8,122.6,0,122.6"/>
<path id="Path_115" class="st0" d="M880.3,348.7c-16.1,0-17.9-38-38.3-38"/>
<path id="Path_116" class="st0" d="M884.6,368.1h-38.1"/>
<path id="Path_117" class="st0" d="M847.2,567c20.8,0,16.1,30.5,33.9,30.5"/>
</svg>
