<?xml version="1.0" encoding="utf-8"?>
<!-- Generator: Adobe Illustrator 24.2.3, SVG Export Plug-In . SVG Version: 6.00 Build 0)  -->
<svg version="1.1" id="Layer_1" xmlns="http://www.w3.org/2000/svg" xmlns:xlink="http://www.w3.org/1999/xlink" x="0px" y="0px"
	 viewBox="0 0 13.4 14.2" style="enable-background:new 0 0 13.4 14.2;" xml:space="preserve">
<style type="text/css">
	.st0{fill:#88B8E9;}
</style>
<path class="st0" d="M12.4,6.1h-9l4-4c0.4-0.4,0.4-1,0-1.4s-1-0.4-1.4,0L0.3,6.4C0.2,6.5,0.1,6.6,0.1,6.7C0,6.8,0,7,0,7.1
	s0,0.3,0.1,0.4s0.1,0.2,0.2,0.3L6,13.5c0.2,0.2,0.5,0.3,0.7,0.3s0.5-0.1,0.7-0.3c0.4-0.4,0.4-1,0-1.4l-4-4h8.9c0.6,0,1-0.4,1-1
	S12.9,6.1,12.4,6.1z"/>
</svg>
