<?xml version="1.0" encoding="utf-8"?>
<!-- Generator: Adobe Illustrator 24.2.3, SVG Export Plug-In . SVG Version: 6.00 Build 0)  -->
<svg version="1.1" id="Layer_1" xmlns="http://www.w3.org/2000/svg" xmlns:xlink="http://www.w3.org/1999/xlink" x="0px" y="0px"
	 viewBox="0 0 476.9 36.3" style="enable-background:new 0 0 476.9 36.3;" xml:space="preserve">
<g>
	<g>
		<path d="M5.6,27.4V2.7h5.2v10.9h0.3L20,2.7h6.3l-9.2,11.1l9.3,13.7h-6.3l-6.8-10.2l-2.6,3.1v7H5.6z"/>
		<path d="M39.7,19.5V8.9h5.1v18.5h-4.9V24h-0.2c-0.4,1.1-1.1,2-2.1,2.6c-1,0.7-2.2,1-3.5,1c-1.2,0-2.3-0.3-3.3-0.8
			c-0.9-0.6-1.7-1.4-2.2-2.4s-0.8-2.3-0.8-3.7V8.9h5.1v10.9c0,1.1,0.3,2,0.9,2.6s1.4,1,2.3,1c0.6,0,1.2-0.1,1.7-0.4s1-0.7,1.3-1.3
			C39.5,21,39.7,20.3,39.7,19.5z"/>
		<path d="M54,16.7v10.7h-5.1V8.9h4.9v3.3H54c0.4-1.1,1.1-1.9,2.1-2.6c1-0.6,2.1-0.9,3.5-0.9C60.9,8.7,62,9,63,9.5
			c1,0.6,1.7,1.4,2.2,2.4s0.8,2.3,0.8,3.7v11.8h-5.1V16.5c0-1.1-0.3-2-0.9-2.7c-0.6-0.6-1.4-1-2.4-1c-0.7,0-1.3,0.1-1.8,0.4
			c-0.5,0.3-0.9,0.7-1.2,1.3C54.2,15.2,54.1,15.9,54,16.7z"/>
		<path d="M85.5,14.1l-4.7,0.3c-0.1-0.4-0.3-0.8-0.5-1.1s-0.6-0.6-1-0.8s-0.9-0.3-1.5-0.3c-0.8,0-1.5,0.2-2,0.5S75,13.5,75,14
			c0,0.4,0.2,0.8,0.5,1.1c0.4,0.3,1,0.6,1.8,0.7l3.4,0.7c1.8,0.4,3.1,1,4,1.8s1.3,1.9,1.3,3.2c0,1.2-0.4,2.3-1.1,3.2
			c-0.7,0.9-1.7,1.6-2.9,2.1s-2.7,0.8-4.3,0.8c-2.5,0-4.4-0.5-5.9-1.5s-2.3-2.4-2.6-4.2l5.1-0.3c0.2,0.7,0.5,1.3,1.1,1.7
			c0.6,0.4,1.3,0.6,2.3,0.6c0.9,0,1.6-0.2,2.2-0.5c0.6-0.4,0.8-0.8,0.8-1.4c0-0.5-0.2-0.9-0.6-1.2s-1-0.5-1.8-0.7l-3.2-0.6
			c-1.8-0.4-3.2-1-4-1.9s-1.3-2-1.3-3.4c0-1.2,0.3-2.2,1-3.1c0.6-0.9,1.6-1.5,2.7-2c1.2-0.5,2.6-0.7,4.1-0.7c2.3,0,4.2,0.5,5.5,1.5
			C84.5,11.1,85.3,12.4,85.5,14.1z"/>
		<path d="M99,8.9v3.9H87.8V8.9H99z M90.4,4.4h5.1v17.3c0,0.5,0.1,0.8,0.2,1.1c0.1,0.3,0.3,0.4,0.6,0.5s0.6,0.2,0.9,0.2
			c0.2,0,0.5,0,0.7-0.1c0.2,0,0.4-0.1,0.6-0.1l0.8,3.8c-0.3,0.1-0.6,0.2-1.1,0.3c-0.5,0.1-1,0.2-1.7,0.2c-1.2,0-2.3-0.1-3.3-0.5
			s-1.7-1-2.2-1.8s-0.8-1.8-0.8-3V4.4H90.4z"/>
		<path d="M110.6,27.8c-1.9,0-3.5-0.4-4.9-1.2c-1.4-0.8-2.4-1.9-3.2-3.3c-0.7-1.4-1.1-3.1-1.1-5.1c0-1.9,0.4-3.6,1.1-5
			c0.7-1.4,1.8-2.6,3.1-3.4c1.3-0.8,2.9-1.2,4.8-1.2c1.2,0,2.4,0.2,3.4,0.6c1.1,0.4,2,1,2.8,1.8s1.4,1.8,1.9,2.9
			c0.4,1.2,0.7,2.6,0.7,4.1v1.4h-15.7v-3.2h10.8c0-0.7-0.2-1.4-0.5-2s-0.8-1-1.3-1.3c-0.6-0.3-1.2-0.5-2-0.5s-1.5,0.2-2.1,0.5
			c-0.6,0.4-1.1,0.8-1.4,1.4s-0.5,1.3-0.5,2v3c0,0.9,0.2,1.7,0.5,2.4c0.3,0.7,0.8,1.2,1.5,1.5s1.4,0.5,2.2,0.5
			c0.6,0,1.1-0.1,1.6-0.2c0.5-0.2,0.9-0.4,1.2-0.7c0.3-0.3,0.6-0.7,0.8-1.2l4.8,0.3c-0.2,1.1-0.7,2.1-1.5,3c-0.7,0.8-1.7,1.5-2.9,2
			C113.5,27.5,112.1,27.8,110.6,27.8z"/>
		<path d="M127.6,16.7v10.7h-5.1V8.9h4.9v3.3h0.2c0.4-1.1,1.1-1.9,2.1-2.6c1-0.6,2.1-0.9,3.5-0.9c1.3,0,2.4,0.3,3.4,0.8
			c1,0.6,1.7,1.4,2.2,2.4s0.8,2.3,0.8,3.7v11.8h-5.1V16.5c0-1.1-0.3-2-0.9-2.7c-0.6-0.6-1.4-1-2.4-1c-0.7,0-1.3,0.1-1.8,0.4
			c-0.5,0.3-0.9,0.7-1.2,1.3C127.8,15.2,127.6,15.9,127.6,16.7z"/>
		<path d="M152.1,27.8c-1.9,0-3.5-0.4-4.9-1.2c-1.4-0.8-2.4-1.9-3.2-3.3c-0.7-1.4-1.1-3.1-1.1-5.1c0-1.9,0.4-3.6,1.1-5
			c0.7-1.4,1.8-2.6,3.1-3.4c1.3-0.8,2.9-1.2,4.8-1.2c1.2,0,2.4,0.2,3.4,0.6c1.1,0.4,2,1,2.8,1.8s1.4,1.8,1.9,2.9
			c0.4,1.2,0.7,2.6,0.7,4.1v1.4H145v-3.2h10.8c0-0.7-0.2-1.4-0.5-2s-0.8-1-1.3-1.3s-1.2-0.5-2-0.5s-1.5,0.2-2.1,0.5
			c-0.6,0.4-1.1,0.8-1.4,1.4s-0.5,1.3-0.5,2v3c0,0.9,0.2,1.7,0.5,2.4c0.3,0.7,0.8,1.2,1.5,1.5s1.4,0.5,2.2,0.5
			c0.6,0,1.1-0.1,1.6-0.2s0.9-0.4,1.2-0.7c0.3-0.3,0.6-0.7,0.8-1.2l4.8,0.3c-0.2,1.1-0.7,2.1-1.5,3c-0.7,0.8-1.7,1.5-2.9,2
			C155,27.5,153.6,27.8,152.1,27.8z"/>
		<path d="M163.9,27.4V8.9h5v3.2h0.2c0.3-1.2,0.9-2,1.7-2.6c0.8-0.6,1.7-0.9,2.8-0.9c0.3,0,0.5,0,0.8,0s0.6,0.1,0.8,0.1v4.6
			c-0.2-0.1-0.6-0.1-1-0.2c-0.4-0.1-0.8-0.1-1.2-0.1c-0.8,0-1.4,0.2-2,0.5s-1.1,0.8-1.4,1.4s-0.5,1.2-0.5,2v10.5
			C169.1,27.4,163.9,27.4,163.9,27.4z"/>
		<path d="M188.7,8.9v3.9h-11.4V8.9H188.7z M179.9,27.4V7.5c0-1.3,0.3-2.5,0.8-3.3s1.2-1.5,2.2-2c0.9-0.4,2-0.7,3.1-0.7
			c0.8,0,1.5,0.1,2.2,0.2s1.1,0.2,1.5,0.3l-0.9,3.9c-0.2-0.1-0.4-0.1-0.7-0.2s-0.6-0.1-0.9-0.1c-0.8,0-1.3,0.2-1.6,0.5
			s-0.4,0.8-0.4,1.5v19.8H179.9z"/>
		<path d="M199.6,34.7c-1.7,0-3.1-0.2-4.3-0.7s-2.1-1.1-2.8-1.9c-0.7-0.8-1.2-1.7-1.4-2.6l4.8-0.6c0.1,0.4,0.4,0.7,0.7,1
			s0.7,0.6,1.2,0.8c0.5,0.2,1.2,0.3,1.9,0.3c1.1,0,2-0.3,2.8-0.8c0.7-0.5,1.1-1.5,1.1-2.7v-3.4h-0.2c-0.2,0.5-0.6,1-1,1.5
			c-0.5,0.5-1,0.8-1.7,1.1s-1.6,0.4-2.5,0.4c-1.4,0-2.7-0.3-3.8-1c-1.1-0.6-2-1.6-2.7-3c-0.7-1.3-1-3-1-5.1s0.3-3.9,1-5.3
			s1.6-2.5,2.7-3.2c1.1-0.7,2.4-1.1,3.7-1.1c1,0,1.9,0.2,2.6,0.5s1.3,0.8,1.7,1.3s0.8,1,1,1.5h0.2V8.9h5.1v18.7c0,1.6-0.4,2.9-1.2,4
			s-1.8,1.9-3.2,2.4S201.4,34.7,199.6,34.7z M199.7,23.3c0.8,0,1.5-0.2,2.1-0.6s1-1,1.3-1.8s0.5-1.7,0.5-2.8c0-1.1-0.2-2-0.5-2.8
			c-0.3-0.8-0.7-1.4-1.3-1.9c-0.6-0.4-1.3-0.7-2.1-0.7s-1.6,0.2-2.1,0.7c-0.6,0.5-1,1.1-1.3,1.9s-0.4,1.7-0.4,2.8s0.2,2,0.5,2.8
			s0.7,1.4,1.3,1.8C198.1,23.1,198.9,23.3,199.7,23.3z"/>
		<path d="M221.1,27.8c-1.9,0-3.5-0.4-4.9-1.2s-2.4-1.9-3.2-3.4c-0.7-1.4-1.1-3.1-1.1-5s0.4-3.6,1.1-5c0.7-1.4,1.8-2.6,3.2-3.4
			s3-1.2,4.9-1.2s3.5,0.4,4.9,1.2s2.4,1.9,3.2,3.4c0.7,1.4,1.1,3.1,1.1,5s-0.4,3.6-1.1,5s-1.8,2.6-3.2,3.4
			C224.6,27.4,223,27.8,221.1,27.8z M221.2,23.8c0.9,0,1.6-0.2,2.1-0.7c0.6-0.5,1-1.2,1.3-2s0.4-1.8,0.4-2.9s-0.1-2-0.4-2.9
			c-0.3-0.8-0.7-1.5-1.3-2c-0.6-0.5-1.3-0.7-2.1-0.7c-0.9,0-1.6,0.2-2.2,0.7c-0.6,0.5-1,1.2-1.3,2c-0.3,0.8-0.4,1.8-0.4,2.9
			s0.1,2,0.4,2.9s0.7,1.5,1.3,2C219.6,23.5,220.3,23.8,221.2,23.8z"/>
		<path d="M242.1,27.8c-1.9,0-3.5-0.4-4.9-1.2c-1.4-0.8-2.4-1.9-3.2-3.3c-0.7-1.4-1.1-3.1-1.1-5.1c0-1.9,0.4-3.6,1.1-5
			s1.8-2.6,3.1-3.4c1.3-0.8,2.9-1.2,4.8-1.2c1.2,0,2.4,0.2,3.4,0.6c1.1,0.4,2,1,2.8,1.8s1.4,1.8,1.9,2.9c0.4,1.2,0.7,2.6,0.7,4.1
			v1.4H235v-3.2h10.8c0-0.7-0.2-1.4-0.5-2s-0.8-1-1.3-1.3s-1.2-0.5-2-0.5s-1.5,0.2-2.1,0.5c-0.6,0.4-1.1,0.8-1.4,1.4s-0.5,1.3-0.5,2
			v3c0,0.9,0.2,1.7,0.5,2.4c0.3,0.7,0.8,1.2,1.5,1.5s1.4,0.5,2.2,0.5c0.6,0,1.1-0.1,1.6-0.2s0.9-0.4,1.2-0.7
			c0.3-0.3,0.6-0.7,0.8-1.2l4.8,0.3c-0.2,1.1-0.7,2.1-1.5,3c-0.7,0.8-1.7,1.5-2.9,2C245,27.5,243.6,27.8,242.1,27.8z"/>
		<path d="M260.8,27.7c-1.4,0-2.7-0.4-3.8-1.1c-1.1-0.7-2-1.8-2.7-3.2c-0.7-1.4-1-3.2-1-5.2c0-2.1,0.3-3.9,1-5.3s1.6-2.5,2.7-3.2
			c1.1-0.7,2.4-1.1,3.7-1.1c1,0,1.9,0.2,2.6,0.5c0.7,0.4,1.3,0.8,1.7,1.3c0.4,0.5,0.8,1,1,1.5h0.2V2.7h5.1v24.7h-5.1v-3H266
			c-0.2,0.5-0.6,1-1,1.5s-1,0.9-1.7,1.2C262.6,27.5,261.8,27.7,260.8,27.7z M262.4,23.6c0.8,0,1.5-0.2,2.1-0.7s1-1.1,1.3-1.9
			s0.5-1.8,0.5-2.9s-0.2-2.1-0.5-2.9c-0.3-0.8-0.7-1.4-1.3-1.9c-0.6-0.4-1.3-0.7-2.1-0.7c-0.8,0-1.6,0.2-2.1,0.7
			c-0.6,0.5-1,1.1-1.3,1.9s-0.4,1.8-0.4,2.8c0,1.1,0.2,2,0.5,2.9s0.7,1.5,1.3,1.9C260.9,23.4,261.6,23.6,262.4,23.6z"/>
		<path d="M288,2.7l6,18.8h0.2l6-18.8h5.8l-8.5,24.7h-6.7l-8.5-24.7C282.3,2.7,288,2.7,288,2.7z"/>
		<path d="M314,2.7v24.7h-5.1V2.7H314z"/>
		<path d="M323.4,27.8c-1.2,0-2.2-0.2-3.2-0.6s-1.7-1-2.2-1.8s-0.8-1.8-0.8-3.1c0-1,0.2-1.9,0.6-2.6s0.9-1.3,1.5-1.7
			c0.7-0.4,1.4-0.7,2.2-1s1.7-0.4,2.6-0.5c1.1-0.1,1.9-0.2,2.6-0.3s1.1-0.3,1.4-0.5s0.4-0.5,0.4-0.9v-0.1c0-0.8-0.2-1.4-0.7-1.8
			c-0.5-0.4-1.2-0.6-2-0.6c-0.9,0-1.7,0.2-2.2,0.6c-0.5,0.4-0.9,0.9-1.1,1.5l-4.8-0.4c0.2-1.1,0.7-2.1,1.4-2.9s1.6-1.5,2.7-1.9
			s2.4-0.7,3.9-0.7c1,0,2,0.1,3,0.4c0.9,0.2,1.8,0.6,2.5,1.1s1.3,1.2,1.7,1.9c0.4,0.8,0.6,1.7,0.6,2.8v12.5h-4.9v-2.6h-0.1
			c-0.3,0.6-0.7,1.1-1.2,1.5s-1.1,0.8-1.8,1C325.1,27.6,324.3,27.8,323.4,27.8z M324.9,24.2c0.8,0,1.4-0.2,2-0.5s1-0.7,1.4-1.2
			c0.3-0.5,0.5-1.1,0.5-1.8v-2c-0.2,0.1-0.4,0.2-0.7,0.3s-0.6,0.2-0.9,0.2c-0.3,0.1-0.7,0.1-1,0.2s-0.7,0.1-0.9,0.1
			c-0.6,0.1-1.1,0.2-1.6,0.4c-0.5,0.2-0.8,0.5-1.1,0.8c-0.2,0.3-0.4,0.7-0.4,1.2c0,0.7,0.3,1.2,0.8,1.6
			C323.4,24,324.1,24.2,324.9,24.2z"/>
		<path d="M343.1,27.8c-1.2,0-2.2-0.2-3.2-0.6s-1.7-1-2.2-1.8s-0.8-1.8-0.8-3.1c0-1,0.2-1.9,0.6-2.6s0.9-1.3,1.5-1.7
			c0.7-0.4,1.4-0.7,2.2-1s1.7-0.4,2.6-0.5c1.1-0.1,1.9-0.2,2.6-0.3s1.1-0.3,1.4-0.5s0.4-0.5,0.4-0.9v-0.1c0-0.8-0.2-1.4-0.7-1.8
			c-0.5-0.4-1.2-0.6-2-0.6c-0.9,0-1.7,0.2-2.2,0.6c-0.5,0.4-0.9,0.9-1.1,1.5l-4.8-0.4c0.2-1.1,0.7-2.1,1.4-2.9s1.6-1.5,2.7-1.9
			s2.4-0.7,3.9-0.7c1,0,2,0.1,3,0.4c0.9,0.2,1.8,0.6,2.5,1.1s1.3,1.2,1.7,1.9c0.4,0.8,0.6,1.7,0.6,2.8v12.5h-4.9v-2.6h-0.1
			c-0.3,0.6-0.7,1.1-1.2,1.5s-1.1,0.8-1.8,1C344.8,27.6,344,27.8,343.1,27.8z M344.6,24.2c0.8,0,1.4-0.2,2-0.5s1-0.7,1.4-1.2
			c0.3-0.5,0.5-1.1,0.5-1.8v-2c-0.2,0.1-0.4,0.2-0.7,0.3s-0.6,0.2-0.9,0.2c-0.3,0.1-0.7,0.1-1,0.2s-0.7,0.1-0.9,0.1
			c-0.6,0.1-1.1,0.2-1.6,0.4c-0.5,0.2-0.8,0.5-1.1,0.8c-0.2,0.3-0.4,0.7-0.4,1.2c0,0.7,0.3,1.2,0.8,1.6
			C343.2,24,343.8,24.2,344.6,24.2z"/>
		<path d="M362.7,16.7v10.7h-5.1V8.9h4.9v3.3h0.2c0.4-1.1,1.1-1.9,2.1-2.6c1-0.6,2.1-0.9,3.5-0.9c1.3,0,2.4,0.3,3.4,0.8
			c1,0.6,1.7,1.4,2.2,2.4s0.8,2.3,0.8,3.7v11.8h-5.1V16.5c0-1.1-0.3-2-0.9-2.7c-0.6-0.6-1.4-1-2.4-1c-0.7,0-1.3,0.1-1.8,0.4
			c-0.5,0.3-0.9,0.7-1.2,1.3S362.7,15.9,362.7,16.7z"/>
		<path d="M385.5,27.7c-1.4,0-2.7-0.4-3.8-1.1c-1.1-0.7-2-1.8-2.7-3.2c-0.7-1.4-1-3.2-1-5.2c0-2.1,0.3-3.9,1-5.3s1.6-2.5,2.7-3.2
			s2.4-1.1,3.7-1.1c1,0,1.9,0.2,2.6,0.5c0.7,0.4,1.3,0.8,1.7,1.3c0.4,0.5,0.8,1,1,1.5h0.2V2.7h5.1v24.7h-5.1v-3h-0.2
			c-0.2,0.5-0.6,1-1,1.5s-1,0.9-1.7,1.2C387.4,27.5,386.5,27.7,385.5,27.7z M387.2,23.6c0.8,0,1.5-0.2,2.1-0.7s1-1.1,1.3-1.9
			s0.5-1.8,0.5-2.9s-0.2-2.1-0.5-2.9c-0.3-0.8-0.7-1.4-1.3-1.9c-0.6-0.4-1.3-0.7-2.1-0.7c-0.8,0-1.6,0.2-2.1,0.7
			c-0.6,0.5-1,1.1-1.3,1.9s-0.4,1.8-0.4,2.8c0,1.1,0.2,2,0.5,2.9s0.7,1.5,1.3,1.9C385.6,23.4,386.3,23.6,387.2,23.6z"/>
		<path d="M408.8,27.8c-1.9,0-3.5-0.4-4.9-1.2c-1.4-0.8-2.4-1.9-3.2-3.3c-0.7-1.4-1.1-3.1-1.1-5.1c0-1.9,0.4-3.6,1.1-5
			s1.8-2.6,3.1-3.4c1.3-0.8,2.9-1.2,4.8-1.2c1.2,0,2.4,0.2,3.4,0.6c1.1,0.4,2,1,2.8,1.8s1.4,1.8,1.9,2.9c0.4,1.2,0.7,2.6,0.7,4.1
			v1.4h-15.8v-3.2h10.8c0-0.7-0.2-1.4-0.5-2s-0.8-1-1.3-1.3s-1.2-0.5-2-0.5s-1.5,0.2-2.1,0.5c-0.6,0.4-1.1,0.8-1.4,1.4
			s-0.5,1.3-0.5,2v3c0,0.9,0.2,1.7,0.5,2.4c0.3,0.7,0.8,1.2,1.5,1.5s1.4,0.5,2.2,0.5c0.6,0,1.1-0.1,1.6-0.2s0.9-0.4,1.2-0.7
			c0.3-0.3,0.6-0.7,0.8-1.2l4.8,0.3c-0.2,1.1-0.7,2.1-1.5,3c-0.7,0.8-1.7,1.5-2.9,2C411.6,27.5,410.3,27.8,408.8,27.8z"/>
		<path d="M420.6,27.4V8.9h5v3.2h0.2c0.3-1.2,0.9-2,1.7-2.6c0.8-0.6,1.7-0.9,2.8-0.9c0.3,0,0.5,0,0.8,0s0.6,0.1,0.8,0.1v4.6
			c-0.2-0.1-0.6-0.1-1-0.2c-0.4-0.1-0.8-0.1-1.2-0.1c-0.8,0-1.4,0.2-2,0.5s-1.1,0.8-1.4,1.4s-0.5,1.2-0.5,2v10.5
			C425.8,27.4,420.6,27.4,420.6,27.4z"/>
		<path d="M442.1,27.8c-1.9,0-3.5-0.4-4.9-1.2c-1.4-0.8-2.4-1.9-3.2-3.3c-0.7-1.4-1.1-3.1-1.1-5.1c0-1.9,0.4-3.6,1.1-5
			s1.8-2.6,3.1-3.4c1.3-0.8,2.9-1.2,4.8-1.2c1.2,0,2.4,0.2,3.4,0.6c1.1,0.4,2,1,2.8,1.8s1.4,1.8,1.9,2.9c0.4,1.2,0.7,2.6,0.7,4.1
			v1.4H435v-3.2h10.8c0-0.7-0.2-1.4-0.5-2s-0.8-1-1.3-1.3s-1.2-0.5-2-0.5s-1.5,0.2-2.1,0.5c-0.6,0.4-1.1,0.8-1.4,1.4s-0.5,1.3-0.5,2
			v3c0,0.9,0.2,1.7,0.5,2.4c0.3,0.7,0.8,1.2,1.5,1.5s1.4,0.5,2.2,0.5c0.6,0,1.1-0.1,1.6-0.2s0.9-0.4,1.2-0.7
			c0.3-0.3,0.6-0.7,0.8-1.2l4.8,0.3c-0.2,1.1-0.7,2.1-1.5,3c-0.7,0.8-1.7,1.5-2.9,2C445,27.5,443.6,27.8,442.1,27.8z"/>
		<path d="M459.1,16.7v10.7H454V8.9h4.9v3.3h0.2c0.4-1.1,1.1-1.9,2.1-2.6c1-0.6,2.1-0.9,3.5-0.9c1.3,0,2.4,0.3,3.4,0.8
			c1,0.6,1.7,1.4,2.2,2.4s0.8,2.3,0.8,3.7v11.8H466V16.5c0-1.1-0.3-2-0.9-2.7c-0.6-0.6-1.4-1-2.4-1c-0.7,0-1.3,0.1-1.8,0.4
			c-0.5,0.3-0.9,0.7-1.2,1.3S459.1,15.9,459.1,16.7z"/>
	</g>
</g>
</svg>
