<?xml version="1.0" encoding="utf-8"?>
<!-- Generator: Adobe Illustrator 24.2.3, SVG Export Plug-In . SVG Version: 6.00 Build 0)  -->
<svg version="1.1" id="Layer_1" xmlns="http://www.w3.org/2000/svg" xmlns:xlink="http://www.w3.org/1999/xlink" x="0px" y="0px"
	 viewBox="0 0 124.1 92.2" style="enable-background:new 0 0 124.1 92.2;" xml:space="preserve">
<style type="text/css">
	.st0{fill:#A8D0F7;}
</style>
<g>
	<g>
		<path class="st0" d="M62.1,0C45.8,0,30,7.7,16.2,22.4C6,33.3,0.6,44.1,0.4,44.5c-0.5,1-0.5,2.1,0,3.1C0.6,48.1,6,58.9,16.2,69.8
			C30,84.4,45.8,92.2,62.1,92.2s32.1-7.7,45.8-22.4c10.2-10.9,15.7-21.7,15.9-22.1c0.5-1,0.5-2.1,0-3.1c-0.2-0.5-5.7-11.2-15.9-22.1
			C94.1,7.7,78.3,0,62.1,0L62.1,0z M62.1,85.2c-30.7,0-50.3-31.6-54.6-39.1C11.7,38.6,31.4,7,62.1,7c30.7,0,50.4,31.6,54.6,39.1
			C112.4,53.6,92.8,85.2,62.1,85.2L62.1,85.2z"/>
	</g>
	<g>
		<path class="st0" d="M62.1,33.5c6.9,0,12.6,5.6,12.6,12.6S69,58.7,62.1,58.7S49.5,53,49.5,46.1S55.1,33.5,62.1,33.5 M62.1,26.5
			c-10.8,0-19.6,8.8-19.6,19.6s8.8,19.6,19.6,19.6s19.6-8.8,19.6-19.6S72.9,26.5,62.1,26.5L62.1,26.5z"/>
	</g>
</g>
</svg>
