<?xml version="1.0" encoding="utf-8"?>
<!-- Generator: Adobe Illustrator 24.2.3, SVG Export Plug-In . SVG Version: 6.00 Build 0)  -->
<svg version="1.1" id="Layer_1" xmlns="http://www.w3.org/2000/svg" xmlns:xlink="http://www.w3.org/1999/xlink" x="0px" y="0px"
	 viewBox="0 0 1145.4 632.7" style="enable-background:new 0 0 1145.4 632.7;" xml:space="preserve">
<style type="text/css">
	.st0{fill:none;stroke:#D1F3F9;stroke-width:3;}
	.st1{fill:none;stroke:#FFE0DC;stroke-width:3;}
	.st2{fill:none;stroke:#68D300;stroke-width:3;}
</style>
<path id="Path_84" class="st0" d="M538.2,1.5c0,0-3.1,0-6.3,0c-77.4,0.8-255.2,327.5-403.8,397"/>
<path id="Path_101" class="st0" d="M98.2,464.1c-16.5,66.5,626.9,216.3,903.3,150.8c199.5-47.2,185.9-378.4-20-385.5"/>
<path id="Path_95" class="st0" d="M150.4,460.1c377.5,267.2,352.1-342.3,393-342.3"/>
<path id="Path_110" class="st0" d="M612.5,200c0,261.6-189.7,465.6-491,262.2"/>
<path id="Path_97" class="st0" d="M267,11.6c-38,0.3-56.7,339-119.9,388.4"/>
<path id="Path_83" class="st1" d="M231.7,400.4C317.3,355.3,455.5,3.8,532.4,7.5c3,0.1,5.8,0,5.8,0"/>
<path id="Path_94" class="st1" d="M538.5,106.1c-44.2,22.5-52.1,539.7-256.9,355.7"/>
<path id="Path_109" class="st1" d="M600,202.1c0,184.7-159.8,440.8-333.6,261.4"/>
<path id="Path_102" class="st1" d="M235.3,460.8c-16.5,66.5,475.5,213.1,751.9,147.6c199.5-47.2,191.3-366.8-6.5-369"/>
<line id="Line_1" class="st2" x1="232.2" y1="432.1" x2="359.2" y2="432.1"/>
<path id="Path_82" class="st2" d="M538,14.1c-2.1,0.3-4.2,0.3-6.3,0c-74.7,0-167,291.2-167,382.7"/>
<path id="Path_70" class="st2" d="M358,399.8c-0.9-1.1,3.6-9.4-0.5-10.6C27.9,351.3-41.5,156.9,55.1,23"/>
<path id="Path_96" class="st2" d="M389.7,397.1c0,0,92.8-321.9,150.4-321.9"/>
<path id="Path_98" class="st2" d="M361.7,29.4c48.7,0,19.4,368.2,19.4,368.2"/>
<path id="Path_103" class="st2" d="M358.2,460c-16.5,66.5,295.2,201.1,605.9,144.1c201-36.8,214.4-346.7,17.4-358.5"/>
<path id="Path_111" class="st2" d="M271.7,120.1C143.1,238-11.7,368.7,2.4,455.4c19.2,118.4,249.1,159,340.5,7.8"/>
<path id="Path_112" class="st2" d="M560.8,200c-32.9,159.7-102.3,309.4-155.4,258.6"/>
<path id="Path_90" class="st2" d="M150.5,120.1C244.9,280.8,349,353.3,349,398.3"/>
</svg>
