<?xml version="1.0" encoding="utf-8"?>
<!-- Generator: Adobe Illustrator 24.2.3, SVG Export Plug-In . SVG Version: 6.00 Build 0)  -->
<svg version="1.1" id="Layer_1" xmlns="http://www.w3.org/2000/svg" xmlns:xlink="http://www.w3.org/1999/xlink" x="0px" y="0px"
	 viewBox="0 0 36 36.3" style="enable-background:new 0 0 36 36.3;" xml:space="preserve">
<style type="text/css">
	.st0{fill:#F5C869;}
</style>
<g id="Group_56" transform="translate(-814.02 -32)">
	<path id="Icon_awesome-diaspora" class="st0" d="M834.9,52.8c-0.1,0,0.4,8.2,0.4,8.2l-5.8,0.4c0,0-0.7-8.4-0.7-8.5
		c-0.1-0.1-7.1,2.6-7.5,2.8c-0.1,0-2.2-5.4-2.2-5.5s7.8-3,7.9-3v-0.1c-0.1-0.1-5.1-6.4-5.1-6.5s4.5-3.7,4.5-3.7
		c0.1,0,5.6,6.6,5.7,6.5c0.1,0,4.3-6.8,4.4-6.8s4.9,3.3,4.9,3.3c0,0.1-4.4,6.9-4.3,7c0,0.1,7.8,2.4,7.8,2.4l-1.5,5.7
		C843.4,55,835,52.8,834.9,52.8L834.9,52.8z"/>
</g>
</svg>
