<?xml version="1.0" encoding="utf-8"?>
<!-- Generator: Adobe Illustrator 24.2.3, SVG Export Plug-In . SVG Version: 6.00 Build 0)  -->
<svg version="1.1" id="Layer_1" xmlns="http://www.w3.org/2000/svg" xmlns:xlink="http://www.w3.org/1999/xlink" x="0px" y="0px"
	 viewBox="0 0 305 36.3" style="enable-background:new 0 0 305 36.3;" xml:space="preserve">
<style type="text/css">
	.st0{enable-background:new    ;}
</style>
<g id="Group_56" transform="translate(-814.02 -32)">
	<g id="Group_53" transform="translate(717 -13)">
		<g id="Group_2">
			<g class="st0">
				<path d="M115.6,72.4h-5.7l-6.4-18.6h5.4l3.9,14.1h0.1l3.9-14.1h5.3L115.6,72.4z"/>
				<path d="M123.9,47.3h5.1v25.1h-5.1V47.3z"/>
				<path d="M131.6,67c0-3.4,2.6-5.4,7.2-5.6l4.7-0.3v-1.2c0-1.7-1.2-2.7-3.1-2.7c-1.9,0-3.1,0.9-3.3,2.3h-4.6
					c0.2-3.6,3.3-6.1,8.2-6.1c4.8,0,7.9,2.5,7.9,6.2v12.8h-4.9v-2.9h-0.1c-1,2-3.4,3.1-5.7,3.1C134.3,72.7,131.6,70.4,131.6,67z
					 M143.6,65.6v-1.4l-3.9,0.2c-1.9,0.1-3,1-3,2.3c0,1.4,1.1,2.3,2.9,2.3C141.8,69,143.6,67.6,143.6,65.6z"/>
				<path d="M151.1,67c0-3.4,2.6-5.4,7.2-5.6l4.7-0.3v-1.2c0-1.7-1.2-2.7-3.1-2.7c-1.9,0-3.1,0.9-3.3,2.3H152
					c0.2-3.6,3.3-6.1,8.2-6.1c4.8,0,7.9,2.5,7.9,6.2v12.8h-4.9v-2.9h-0.1c-1,2-3.4,3.1-5.7,3.1C153.8,72.7,151.1,70.4,151.1,67z
					 M163.1,65.6v-1.4l-3.9,0.2c-1.9,0.1-3,1-3,2.3c0,1.4,1.1,2.3,2.9,2.3C161.2,69,163.1,67.6,163.1,65.6z"/>
				<path d="M171.3,53.8h4.9v3.4h0.1c0.8-2.2,2.8-3.7,5.3-3.7c2.7,0,4.6,1.4,5.2,3.8h0.1c0.8-2.3,3.1-3.8,5.8-3.8
					c3.6,0,6.1,2.5,6.1,6.3v12.7h-5.1V60.9c0-2.2-1.1-3.3-3-3.3s-3.2,1.4-3.2,3.5v11.3h-4.9V60.8c0-2-1.1-3.2-3-3.2
					s-3.2,1.5-3.2,3.5v11.2h-5.1V53.8z"/>
				<path d="M209.6,53.4c4.7,0,7.7,2.4,7.8,6h-4.7c-0.1-1.5-1.3-2.4-3.2-2.4c-1.8,0-2.9,0.8-2.9,2c0,0.9,0.8,1.5,2.4,1.9l3.6,0.8
					c3.7,0.8,5.2,2.3,5.2,5.1c0,3.7-3.4,6.1-8.3,6.1c-5,0-8-2.4-8.3-6h5c0.2,1.6,1.5,2.5,3.5,2.5c1.9,0,3.1-0.8,3.1-2
					c0-0.9-0.6-1.5-2.3-1.9l-3.4-0.8c-3.5-0.8-5.3-2.6-5.3-5.4C201.7,55.7,204.8,53.4,209.6,53.4z"/>
				<path d="M237.4,66.7c-0.6,3.7-3.9,6.1-8.5,6.1c-5.7,0-9.2-3.7-9.2-9.6s3.5-9.8,9-9.8c5.4,0,8.8,3.7,8.8,9.3v1.5h-12.8v0.3
					c0,2.7,1.7,4.5,4.3,4.5c1.9,0,3.3-0.9,3.8-2.3H237.4z M224.8,61.1h7.9c-0.1-2.4-1.7-4-3.9-4C226.5,57.1,224.9,58.8,224.8,61.1z"
					/>
				<path d="M240.2,53.8h4.9v3.4h0.1c0.7-2.4,2.2-3.7,4.4-3.7c0.6,0,1.1,0.1,1.4,0.2v4.5c-0.4-0.2-1.1-0.3-1.8-0.3
					c-2.5,0-4,1.5-4,4.2v10.4h-5.1V53.8H240.2z"/>
				<path d="M254.5,57.6H252v-3.7h2.5v-1.4c0-3.6,1.7-5.4,6.1-5.4c0.9,0,2,0.1,2.6,0.2v3.4c-0.4-0.1-0.9-0.1-1.4-0.1
					c-1.7,0-2.4,0.7-2.4,2.1v1.2h3.7v3.7h-3.6v14.8h-5.1L254.5,57.6L254.5,57.6z"/>
				<path d="M265.2,73.7h5c0.4,1.3,1.9,2.2,3.8,2.2c2.6,0,4.1-1.5,4.1-3.6V69H278c-0.9,2-3.1,3.3-5.8,3.3c-4.6,0-7.6-3.5-7.6-9.3
					c0-5.9,2.9-9.5,7.6-9.5c2.7,0,4.8,1.4,5.8,3.5h0.1v-3.2h5v18.4c0,4.4-3.7,7.3-9.3,7.3C269,79.4,265.6,77,265.2,73.7z M278.1,63
					c0-3.4-1.6-5.5-4.2-5.5c-2.5,0-4.1,2.1-4.1,5.5c0,3.4,1.6,5.4,4.1,5.4C276.5,68.4,278.1,66.4,278.1,63z"/>
				<path d="M285.8,63c0-6,3.7-9.7,9.2-9.7s9.2,3.7,9.2,9.7c0,6.1-3.6,9.7-9.2,9.7C289.4,72.8,285.8,69.2,285.8,63z M299.1,63.1
					c0-3.7-1.6-5.8-4.1-5.8s-4.1,2.1-4.1,5.8s1.6,5.8,4.1,5.8C297.5,68.9,299.1,66.8,299.1,63.1z"/>
				<path d="M323.8,66.7c-0.6,3.7-3.9,6.1-8.5,6.1c-5.7,0-9.2-3.7-9.2-9.6s3.5-9.8,9-9.8c5.4,0,8.8,3.7,8.8,9.3v1.5h-12.8v0.3
					c0,2.7,1.7,4.5,4.3,4.5c1.9,0,3.3-0.9,3.8-2.3H323.8z M311.2,61.1h7.9c-0.1-2.4-1.7-4-3.9-4S311.4,58.8,311.2,61.1z"/>
				<path d="M325.9,63c0-5.9,3-9.6,7.6-9.6c2.7,0,4.8,1.4,5.7,3.5h0.1v-9.6h5.1v25.1h-5v-3.2h-0.1c-0.9,2.1-3.1,3.5-5.8,3.5
					C328.9,72.7,325.9,69,325.9,63z M331.1,63.1c0,3.4,1.6,5.5,4.1,5.5s4.1-2.1,4.1-5.5c0-3.4-1.6-5.5-4.1-5.5
					C332.7,57.5,331.1,59.7,331.1,63.1z"/>
				<path d="M348.3,69.8c0-1.6,1.2-2.8,2.8-2.8c1.5,0,2.8,1.2,2.8,2.8c0,1.5-1.3,2.8-2.8,2.8C349.6,72.6,348.3,71.3,348.3,69.8z"/>
				<path d="M362.9,69.2h-0.1v3.2h-5V47.3h5.1V57h0.1c1-2.2,3.1-3.5,5.8-3.5c4.7,0,7.6,3.6,7.6,9.6s-2.9,9.6-7.6,9.6
					C366,72.7,364,71.4,362.9,69.2z M362.9,63.1c0,3.4,1.7,5.5,4.1,5.5c2.5,0,4.1-2.1,4.1-5.5c0-3.4-1.6-5.5-4.1-5.5
					C364.6,57.5,362.9,59.7,362.9,63.1z"/>
				<path d="M396,66.7c-0.6,3.7-3.9,6.1-8.5,6.1c-5.7,0-9.2-3.7-9.2-9.6s3.5-9.8,9-9.8c5.4,0,8.8,3.7,8.8,9.3v1.5h-12.8v0.3
					c0,2.7,1.7,4.5,4.3,4.5c1.9,0,3.3-0.9,3.8-2.3H396z M383.3,61.1h7.9c-0.1-2.4-1.7-4-3.9-4C385.1,57.1,383.5,58.8,383.3,61.1z"/>
			</g>
		</g>
	</g>
</g>
</svg>
