<?xml version="1.0" encoding="utf-8"?>
<!-- Generator: Adobe Illustrator 24.2.3, SVG Export Plug-In . SVG Version: 6.00 Build 0)  -->
<svg version="1.1" id="Layer_1" xmlns="http://www.w3.org/2000/svg" xmlns:xlink="http://www.w3.org/1999/xlink" x="0px" y="0px"
	 viewBox="0 0 510.3 36.3" style="enable-background:new 0 0 510.3 36.3;" xml:space="preserve">
<style type="text/css">
	.st0{fill:#F5C869;}
</style>
<g>
	<path id="Icon_awesome-diaspora" class="st0" d="M20.9,20.8c-0.1,0,0.4,8.2,0.4,8.2l-5.8,0.4c0,0-0.7-8.4-0.7-8.5
		c-0.1-0.1-7.1,2.6-7.5,2.8c-0.1,0-2.2-5.4-2.2-5.5s7.8-3,7.9-3v-0.1C12.9,15,7.9,8.7,7.9,8.6s4.5-3.7,4.5-3.7
		c0.1,0,5.6,6.6,5.7,6.5c0.1,0,4.3-6.8,4.4-6.8s4.9,3.3,4.9,3.3c0,0.1-4.4,6.9-4.3,7c0,0.1,7.8,2.4,7.8,2.4L29.4,23
		C29.4,23,21,20.8,20.9,20.8L20.9,20.8z"/>
	<g>
		<path d="M39,27.4V2.7h5.2v10.9h0.3l8.9-10.9h6.3l-9.2,11.1l9.3,13.7h-6.3l-6.8-10.2l-2.6,3.1v7H39z"/>
		<path d="M73.1,19.5V8.9h5.1v18.5h-4.9V24h-0.2c-0.4,1.1-1.1,2-2.1,2.6c-1,0.7-2.2,1-3.5,1c-1.2,0-2.3-0.3-3.3-0.8
			c-0.9-0.6-1.7-1.4-2.2-2.4c-0.5-1-0.8-2.3-0.8-3.7V8.9h5.1v10.9c0,1.1,0.3,2,0.9,2.6c0.6,0.6,1.4,1,2.3,1c0.6,0,1.2-0.1,1.7-0.4
			c0.5-0.3,1-0.7,1.3-1.3C72.9,21,73.1,20.3,73.1,19.5z"/>
		<path d="M87.4,16.7v10.7h-5.1V8.9h4.9v3.3h0.2c0.4-1.1,1.1-1.9,2.1-2.6c1-0.6,2.1-0.9,3.5-0.9c1.3,0,2.4,0.3,3.4,0.8
			c1,0.6,1.7,1.4,2.2,2.4c0.5,1,0.8,2.3,0.8,3.7v11.8h-5.1V16.5c0-1.1-0.3-2-0.9-2.7c-0.6-0.6-1.4-1-2.4-1c-0.7,0-1.3,0.1-1.8,0.4
			c-0.5,0.3-0.9,0.7-1.2,1.3C87.6,15.2,87.5,15.9,87.4,16.7z"/>
		<path d="M118.9,14.1l-4.7,0.3c-0.1-0.4-0.3-0.8-0.5-1.1s-0.6-0.6-1-0.8s-0.9-0.3-1.5-0.3c-0.8,0-1.5,0.2-2,0.5s-0.8,0.8-0.8,1.3
			c0,0.4,0.2,0.8,0.5,1.1c0.4,0.3,1,0.6,1.8,0.7l3.4,0.7c1.8,0.4,3.1,1,4,1.8c0.9,0.8,1.3,1.9,1.3,3.2c0,1.2-0.4,2.3-1.1,3.2
			c-0.7,0.9-1.7,1.6-2.9,2.1s-2.7,0.8-4.3,0.8c-2.5,0-4.4-0.5-5.9-1.5c-1.5-1-2.3-2.4-2.6-4.2l5.1-0.3c0.2,0.7,0.5,1.3,1.1,1.7
			c0.6,0.4,1.3,0.6,2.3,0.6c0.9,0,1.6-0.2,2.2-0.5c0.6-0.4,0.8-0.8,0.8-1.4c0-0.5-0.2-0.9-0.6-1.2s-1-0.5-1.8-0.7l-3.2-0.6
			c-1.8-0.4-3.2-1-4-1.9s-1.3-2-1.3-3.4c0-1.2,0.3-2.2,1-3.1c0.6-0.9,1.6-1.5,2.7-2c1.2-0.5,2.6-0.7,4.1-0.7c2.3,0,4.2,0.5,5.5,1.5
			C117.9,11.1,118.7,12.4,118.9,14.1z"/>
		<path d="M132.4,8.9v3.9h-11.2V8.9H132.4z M123.8,4.4h5.1v17.3c0,0.5,0.1,0.8,0.2,1.1c0.1,0.3,0.3,0.4,0.6,0.5
			c0.3,0.1,0.6,0.2,0.9,0.2c0.2,0,0.5,0,0.7-0.1c0.2,0,0.4-0.1,0.6-0.1l0.8,3.8c-0.3,0.1-0.6,0.2-1.1,0.3c-0.5,0.1-1,0.2-1.7,0.2
			c-1.2,0-2.3-0.1-3.3-0.5s-1.7-1-2.2-1.8c-0.5-0.8-0.8-1.8-0.8-3V4.4z"/>
		<path d="M144,27.8c-1.9,0-3.5-0.4-4.9-1.2c-1.4-0.8-2.4-1.9-3.2-3.3c-0.7-1.4-1.1-3.1-1.1-5.1c0-1.9,0.4-3.6,1.1-5
			c0.7-1.4,1.8-2.6,3.1-3.4c1.3-0.8,2.9-1.2,4.8-1.2c1.2,0,2.4,0.2,3.4,0.6c1.1,0.4,2,1,2.8,1.8c0.8,0.8,1.4,1.8,1.9,2.9
			c0.4,1.2,0.7,2.6,0.7,4.1v1.4h-15.7v-3.2h10.8c0-0.7-0.2-1.4-0.5-2c-0.3-0.6-0.8-1-1.3-1.3c-0.6-0.3-1.2-0.5-2-0.5
			c-0.8,0-1.5,0.2-2.1,0.5c-0.6,0.4-1.1,0.8-1.4,1.4s-0.5,1.3-0.5,2v3c0,0.9,0.2,1.7,0.5,2.4c0.3,0.7,0.8,1.2,1.5,1.5
			s1.4,0.5,2.2,0.5c0.6,0,1.1-0.1,1.6-0.2c0.5-0.2,0.9-0.4,1.2-0.7c0.3-0.3,0.6-0.7,0.8-1.2l4.8,0.3c-0.2,1.1-0.7,2.1-1.5,3
			c-0.7,0.8-1.7,1.5-2.9,2C146.9,27.5,145.5,27.8,144,27.8z"/>
		<path d="M161,16.7v10.7h-5.1V8.9h4.9v3.3h0.2c0.4-1.1,1.1-1.9,2.1-2.6c1-0.6,2.1-0.9,3.5-0.9c1.3,0,2.4,0.3,3.4,0.8
			c1,0.6,1.7,1.4,2.2,2.4c0.5,1,0.8,2.3,0.8,3.7v11.8h-5.1V16.5c0-1.1-0.3-2-0.9-2.7c-0.6-0.6-1.4-1-2.4-1c-0.7,0-1.3,0.1-1.8,0.4
			c-0.5,0.3-0.9,0.7-1.2,1.3C161.2,15.2,161,15.9,161,16.7z"/>
		<path d="M185.5,27.8c-1.9,0-3.5-0.4-4.9-1.2c-1.4-0.8-2.4-1.9-3.2-3.3c-0.7-1.4-1.1-3.1-1.1-5.1c0-1.9,0.4-3.6,1.1-5
			c0.7-1.4,1.8-2.6,3.1-3.4c1.3-0.8,2.9-1.2,4.8-1.2c1.2,0,2.4,0.2,3.4,0.6c1.1,0.4,2,1,2.8,1.8c0.8,0.8,1.4,1.8,1.9,2.9
			c0.4,1.2,0.7,2.6,0.7,4.1v1.4h-15.7v-3.2h10.8c0-0.7-0.2-1.4-0.5-2c-0.3-0.6-0.8-1-1.3-1.3s-1.2-0.5-2-0.5c-0.8,0-1.5,0.2-2.1,0.5
			c-0.6,0.4-1.1,0.8-1.4,1.4s-0.5,1.3-0.5,2v3c0,0.9,0.2,1.7,0.5,2.4c0.3,0.7,0.8,1.2,1.5,1.5s1.4,0.5,2.2,0.5
			c0.6,0,1.1-0.1,1.6-0.2s0.9-0.4,1.2-0.7c0.3-0.3,0.6-0.7,0.8-1.2l4.8,0.3c-0.2,1.1-0.7,2.1-1.5,3c-0.7,0.8-1.7,1.5-2.9,2
			C188.4,27.5,187,27.8,185.5,27.8z"/>
		<path d="M197.3,27.4V8.9h5v3.2h0.2c0.3-1.2,0.9-2,1.7-2.6c0.8-0.6,1.7-0.9,2.8-0.9c0.3,0,0.5,0,0.8,0s0.6,0.1,0.8,0.1v4.6
			c-0.2-0.1-0.6-0.1-1-0.2c-0.4-0.1-0.8-0.1-1.2-0.1c-0.8,0-1.4,0.2-2,0.5c-0.6,0.3-1.1,0.8-1.4,1.4s-0.5,1.2-0.5,2v10.5H197.3z"/>
		<path d="M222.1,8.9v3.9h-11.4V8.9H222.1z M213.3,27.4V7.5c0-1.3,0.3-2.5,0.8-3.3s1.2-1.5,2.2-2c0.9-0.4,2-0.7,3.1-0.7
			c0.8,0,1.5,0.1,2.2,0.2c0.7,0.1,1.1,0.2,1.5,0.3l-0.9,3.9c-0.2-0.1-0.4-0.1-0.7-0.2c-0.3-0.1-0.6-0.1-0.9-0.1
			c-0.8,0-1.3,0.2-1.6,0.5s-0.4,0.8-0.4,1.5v19.8H213.3z"/>
		<path d="M233,34.7c-1.7,0-3.1-0.2-4.3-0.7c-1.2-0.5-2.1-1.1-2.8-1.9c-0.7-0.8-1.2-1.7-1.4-2.6l4.8-0.6c0.1,0.4,0.4,0.7,0.7,1
			c0.3,0.3,0.7,0.6,1.2,0.8c0.5,0.2,1.2,0.3,1.9,0.3c1.1,0,2-0.3,2.8-0.8c0.7-0.5,1.1-1.5,1.1-2.7v-3.4h-0.2c-0.2,0.5-0.6,1-1,1.5
			c-0.5,0.5-1,0.8-1.7,1.1s-1.6,0.4-2.5,0.4c-1.4,0-2.7-0.3-3.8-1c-1.1-0.6-2-1.6-2.7-3c-0.7-1.3-1-3-1-5.1c0-2.1,0.3-3.9,1-5.3
			c0.7-1.4,1.6-2.5,2.7-3.2c1.1-0.7,2.4-1.1,3.7-1.1c1,0,1.9,0.2,2.6,0.5s1.3,0.8,1.7,1.3c0.4,0.5,0.8,1,1,1.5h0.2V8.9h5.1v18.7
			c0,1.6-0.4,2.9-1.2,4c-0.8,1.1-1.8,1.9-3.2,2.4S234.8,34.7,233,34.7z M233.1,23.3c0.8,0,1.5-0.2,2.1-0.6c0.6-0.4,1-1,1.3-1.8
			c0.3-0.8,0.5-1.7,0.5-2.8c0-1.1-0.2-2-0.5-2.8c-0.3-0.8-0.7-1.4-1.3-1.9c-0.6-0.4-1.3-0.7-2.1-0.7c-0.8,0-1.6,0.2-2.1,0.7
			c-0.6,0.5-1,1.1-1.3,1.9c-0.3,0.8-0.4,1.7-0.4,2.8c0,1.1,0.2,2,0.5,2.8c0.3,0.8,0.7,1.4,1.3,1.8C231.5,23.1,232.3,23.3,233.1,23.3
			z"/>
		<path d="M254.5,27.8c-1.9,0-3.5-0.4-4.9-1.2s-2.4-1.9-3.2-3.4c-0.7-1.4-1.1-3.1-1.1-5c0-1.9,0.4-3.6,1.1-5
			c0.7-1.4,1.8-2.6,3.2-3.4s3-1.2,4.9-1.2c1.9,0,3.5,0.4,4.9,1.2c1.4,0.8,2.4,1.9,3.2,3.4c0.7,1.4,1.1,3.1,1.1,5
			c0,1.9-0.4,3.6-1.1,5c-0.7,1.4-1.8,2.6-3.2,3.4C258,27.4,256.4,27.8,254.5,27.8z M254.6,23.8c0.9,0,1.6-0.2,2.1-0.7
			c0.6-0.5,1-1.2,1.3-2s0.4-1.8,0.4-2.9s-0.1-2-0.4-2.9c-0.3-0.8-0.7-1.5-1.3-2c-0.6-0.5-1.3-0.7-2.1-0.7c-0.9,0-1.6,0.2-2.2,0.7
			c-0.6,0.5-1,1.2-1.3,2c-0.3,0.8-0.4,1.8-0.4,2.9s0.1,2,0.4,2.9s0.7,1.5,1.3,2C253,23.5,253.7,23.8,254.6,23.8z"/>
		<path d="M275.5,27.8c-1.9,0-3.5-0.4-4.9-1.2c-1.4-0.8-2.4-1.9-3.2-3.3c-0.7-1.4-1.1-3.1-1.1-5.1c0-1.9,0.4-3.6,1.1-5
			c0.7-1.4,1.8-2.6,3.1-3.4c1.3-0.8,2.9-1.2,4.8-1.2c1.2,0,2.4,0.2,3.4,0.6c1.1,0.4,2,1,2.8,1.8c0.8,0.8,1.4,1.8,1.9,2.9
			c0.4,1.2,0.7,2.6,0.7,4.1v1.4h-15.7v-3.2h10.8c0-0.7-0.2-1.4-0.5-2c-0.3-0.6-0.8-1-1.3-1.3s-1.2-0.5-2-0.5c-0.8,0-1.5,0.2-2.1,0.5
			c-0.6,0.4-1.1,0.8-1.4,1.4s-0.5,1.3-0.5,2v3c0,0.9,0.2,1.7,0.5,2.4c0.3,0.7,0.8,1.2,1.5,1.5s1.4,0.5,2.2,0.5
			c0.6,0,1.1-0.1,1.6-0.2s0.9-0.4,1.2-0.7c0.3-0.3,0.6-0.7,0.8-1.2l4.8,0.3c-0.2,1.1-0.7,2.1-1.5,3c-0.7,0.8-1.7,1.5-2.9,2
			C278.4,27.5,277,27.8,275.5,27.8z"/>
		<path d="M294.2,27.7c-1.4,0-2.7-0.4-3.8-1.1c-1.1-0.7-2-1.8-2.7-3.2c-0.7-1.4-1-3.2-1-5.2c0-2.1,0.3-3.9,1-5.3
			c0.7-1.4,1.6-2.5,2.7-3.2c1.1-0.7,2.4-1.1,3.7-1.1c1,0,1.9,0.2,2.6,0.5c0.7,0.4,1.3,0.8,1.7,1.3c0.4,0.5,0.8,1,1,1.5h0.2V2.7h5.1
			v24.7h-5.1v-3h-0.2c-0.2,0.5-0.6,1-1,1.5c-0.4,0.5-1,0.9-1.7,1.2C296,27.5,295.2,27.7,294.2,27.7z M295.8,23.6
			c0.8,0,1.5-0.2,2.1-0.7c0.6-0.5,1-1.1,1.3-1.9s0.5-1.8,0.5-2.9c0-1.1-0.2-2.1-0.5-2.9c-0.3-0.8-0.7-1.4-1.3-1.9
			c-0.6-0.4-1.3-0.7-2.1-0.7c-0.8,0-1.6,0.2-2.1,0.7c-0.6,0.5-1,1.1-1.3,1.9c-0.3,0.8-0.4,1.8-0.4,2.8c0,1.1,0.2,2,0.5,2.9
			s0.7,1.5,1.3,1.9C294.3,23.4,295,23.6,295.8,23.6z"/>
		<path d="M321.4,2.7l6,18.8h0.2l6-18.8h5.8l-8.5,24.7h-6.7l-8.5-24.7H321.4z"/>
		<path d="M347.4,2.7v24.7h-5.1V2.7H347.4z"/>
		<path d="M356.8,27.8c-1.2,0-2.2-0.2-3.2-0.6s-1.7-1-2.2-1.8c-0.5-0.8-0.8-1.8-0.8-3.1c0-1,0.2-1.9,0.6-2.6
			c0.4-0.7,0.9-1.3,1.5-1.7c0.7-0.4,1.4-0.7,2.2-1s1.7-0.4,2.6-0.5c1.1-0.1,1.9-0.2,2.6-0.3s1.1-0.3,1.4-0.5
			c0.3-0.2,0.4-0.5,0.4-0.9v-0.1c0-0.8-0.2-1.4-0.7-1.8c-0.5-0.4-1.2-0.6-2-0.6c-0.9,0-1.7,0.2-2.2,0.6c-0.5,0.4-0.9,0.9-1.1,1.5
			l-4.8-0.4c0.2-1.1,0.7-2.1,1.4-2.9s1.6-1.5,2.7-1.9s2.4-0.7,3.9-0.7c1,0,2,0.1,3,0.4c0.9,0.2,1.8,0.6,2.5,1.1
			c0.7,0.5,1.3,1.2,1.7,1.9c0.4,0.8,0.6,1.7,0.6,2.8v12.5h-4.9v-2.6h-0.1c-0.3,0.6-0.7,1.1-1.2,1.5s-1.1,0.8-1.8,1
			C358.5,27.6,357.7,27.8,356.8,27.8z M358.3,24.2c0.8,0,1.4-0.2,2-0.5c0.6-0.3,1-0.7,1.4-1.2c0.3-0.5,0.5-1.1,0.5-1.8v-2
			c-0.2,0.1-0.4,0.2-0.7,0.3s-0.6,0.2-0.9,0.2c-0.3,0.1-0.7,0.1-1,0.2c-0.3,0.1-0.7,0.1-0.9,0.1c-0.6,0.1-1.1,0.2-1.6,0.4
			c-0.5,0.2-0.8,0.5-1.1,0.8c-0.2,0.3-0.4,0.7-0.4,1.2c0,0.7,0.3,1.2,0.8,1.6C356.8,24,357.5,24.2,358.3,24.2z"/>
		<path d="M376.5,27.8c-1.2,0-2.2-0.2-3.2-0.6s-1.7-1-2.2-1.8c-0.5-0.8-0.8-1.8-0.8-3.1c0-1,0.2-1.9,0.6-2.6
			c0.4-0.7,0.9-1.3,1.5-1.7c0.7-0.4,1.4-0.7,2.2-1s1.7-0.4,2.6-0.5c1.1-0.1,1.9-0.2,2.6-0.3s1.1-0.3,1.4-0.5
			c0.3-0.2,0.4-0.5,0.4-0.9v-0.1c0-0.8-0.2-1.4-0.7-1.8c-0.5-0.4-1.2-0.6-2-0.6c-0.9,0-1.7,0.2-2.2,0.6c-0.5,0.4-0.9,0.9-1.1,1.5
			l-4.8-0.4c0.2-1.1,0.7-2.1,1.4-2.9s1.6-1.5,2.7-1.9s2.4-0.7,3.9-0.7c1,0,2,0.1,3,0.4c0.9,0.2,1.8,0.6,2.5,1.1
			c0.7,0.5,1.3,1.2,1.7,1.9c0.4,0.8,0.6,1.7,0.6,2.8v12.5h-4.9v-2.6h-0.1c-0.3,0.6-0.7,1.1-1.2,1.5s-1.1,0.8-1.8,1
			C378.2,27.6,377.4,27.8,376.5,27.8z M378,24.2c0.8,0,1.4-0.2,2-0.5c0.6-0.3,1-0.7,1.4-1.2c0.3-0.5,0.5-1.1,0.5-1.8v-2
			c-0.2,0.1-0.4,0.2-0.7,0.3s-0.6,0.2-0.9,0.2c-0.3,0.1-0.7,0.1-1,0.2c-0.3,0.1-0.7,0.1-0.9,0.1c-0.6,0.1-1.1,0.2-1.6,0.4
			c-0.5,0.2-0.8,0.5-1.1,0.8c-0.2,0.3-0.4,0.7-0.4,1.2c0,0.7,0.3,1.2,0.8,1.6C376.6,24,377.2,24.2,378,24.2z"/>
		<path d="M396.1,16.7v10.7H391V8.9h4.9v3.3h0.2c0.4-1.1,1.1-1.9,2.1-2.6c1-0.6,2.1-0.9,3.5-0.9c1.3,0,2.4,0.3,3.4,0.8
			c1,0.6,1.7,1.4,2.2,2.4c0.5,1,0.8,2.3,0.8,3.7v11.8h-5.1V16.5c0-1.1-0.3-2-0.9-2.7c-0.6-0.6-1.4-1-2.4-1c-0.7,0-1.3,0.1-1.8,0.4
			c-0.5,0.3-0.9,0.7-1.2,1.3S396.1,15.9,396.1,16.7z"/>
		<path d="M418.9,27.7c-1.4,0-2.7-0.4-3.8-1.1c-1.1-0.7-2-1.8-2.7-3.2c-0.7-1.4-1-3.2-1-5.2c0-2.1,0.3-3.9,1-5.3
			c0.7-1.4,1.6-2.5,2.7-3.2c1.1-0.7,2.4-1.1,3.7-1.1c1,0,1.9,0.2,2.6,0.5c0.7,0.4,1.3,0.8,1.7,1.3c0.4,0.5,0.8,1,1,1.5h0.2V2.7h5.1
			v24.7h-5.1v-3h-0.2c-0.2,0.5-0.6,1-1,1.5c-0.4,0.5-1,0.9-1.7,1.2C420.8,27.5,419.9,27.7,418.9,27.7z M420.6,23.6
			c0.8,0,1.5-0.2,2.1-0.7c0.6-0.5,1-1.1,1.3-1.9s0.5-1.8,0.5-2.9c0-1.1-0.2-2.1-0.5-2.9c-0.3-0.8-0.7-1.4-1.3-1.9
			c-0.6-0.4-1.3-0.7-2.1-0.7c-0.8,0-1.6,0.2-2.1,0.7c-0.6,0.5-1,1.1-1.3,1.9c-0.3,0.8-0.4,1.8-0.4,2.8c0,1.1,0.2,2,0.5,2.9
			s0.7,1.5,1.3,1.9C419,23.4,419.7,23.6,420.6,23.6z"/>
		<path d="M442.2,27.8c-1.9,0-3.5-0.4-4.9-1.2c-1.4-0.8-2.4-1.9-3.2-3.3c-0.7-1.4-1.1-3.1-1.1-5.1c0-1.9,0.4-3.6,1.1-5
			c0.7-1.4,1.8-2.6,3.1-3.4c1.3-0.8,2.9-1.2,4.8-1.2c1.2,0,2.4,0.2,3.4,0.6c1.1,0.4,2,1,2.8,1.8c0.8,0.8,1.4,1.8,1.9,2.9
			c0.4,1.2,0.7,2.6,0.7,4.1v1.4H435v-3.2h10.8c0-0.7-0.2-1.4-0.5-2c-0.3-0.6-0.8-1-1.3-1.3s-1.2-0.5-2-0.5c-0.8,0-1.5,0.2-2.1,0.5
			c-0.6,0.4-1.1,0.8-1.4,1.4s-0.5,1.3-0.5,2v3c0,0.9,0.2,1.7,0.5,2.4c0.3,0.7,0.8,1.2,1.5,1.5s1.4,0.5,2.2,0.5
			c0.6,0,1.1-0.1,1.6-0.2s0.9-0.4,1.2-0.7c0.3-0.3,0.6-0.7,0.8-1.2l4.8,0.3c-0.2,1.1-0.7,2.1-1.5,3c-0.7,0.8-1.7,1.5-2.9,2
			C445,27.5,443.7,27.8,442.2,27.8z"/>
		<path d="M454,27.4V8.9h5v3.2h0.2c0.3-1.2,0.9-2,1.7-2.6c0.8-0.6,1.7-0.9,2.8-0.9c0.3,0,0.5,0,0.8,0s0.6,0.1,0.8,0.1v4.6
			c-0.2-0.1-0.6-0.1-1-0.2c-0.4-0.1-0.8-0.1-1.2-0.1c-0.8,0-1.4,0.2-2,0.5c-0.6,0.3-1.1,0.8-1.4,1.4s-0.5,1.2-0.5,2v10.5H454z"/>
		<path d="M475.5,27.8c-1.9,0-3.5-0.4-4.9-1.2c-1.4-0.8-2.4-1.9-3.2-3.3c-0.7-1.4-1.1-3.1-1.1-5.1c0-1.9,0.4-3.6,1.1-5
			c0.7-1.4,1.8-2.6,3.1-3.4c1.3-0.8,2.9-1.2,4.8-1.2c1.2,0,2.4,0.2,3.4,0.6c1.1,0.4,2,1,2.8,1.8c0.8,0.8,1.4,1.8,1.9,2.9
			c0.4,1.2,0.7,2.6,0.7,4.1v1.4h-15.7v-3.2h10.8c0-0.7-0.2-1.4-0.5-2c-0.3-0.6-0.8-1-1.3-1.3s-1.2-0.5-2-0.5c-0.8,0-1.5,0.2-2.1,0.5
			c-0.6,0.4-1.1,0.8-1.4,1.4s-0.5,1.3-0.5,2v3c0,0.9,0.2,1.7,0.5,2.4c0.3,0.7,0.8,1.2,1.5,1.5s1.4,0.5,2.2,0.5
			c0.6,0,1.1-0.1,1.6-0.2s0.9-0.4,1.2-0.7c0.3-0.3,0.6-0.7,0.8-1.2l4.8,0.3c-0.2,1.1-0.7,2.1-1.5,3c-0.7,0.8-1.7,1.5-2.9,2
			C478.4,27.5,477,27.8,475.5,27.8z"/>
		<path d="M492.5,16.7v10.7h-5.1V8.9h4.9v3.3h0.2c0.4-1.1,1.1-1.9,2.1-2.6c1-0.6,2.1-0.9,3.5-0.9c1.3,0,2.4,0.3,3.4,0.8
			c1,0.6,1.7,1.4,2.2,2.4c0.5,1,0.8,2.3,0.8,3.7v11.8h-5.1V16.5c0-1.1-0.3-2-0.9-2.7c-0.6-0.6-1.4-1-2.4-1c-0.7,0-1.3,0.1-1.8,0.4
			c-0.5,0.3-0.9,0.7-1.2,1.3S492.5,15.9,492.5,16.7z"/>
	</g>
</g>
</svg>
